<svg xmlns="http://www.w3.org/2000/svg" xmlns:xlink="http://www.w3.org/1999/xlink" width="1920" zoomAndPan="magnify" viewBox="0 0 1440 809.999993" height="1080" preserveAspectRatio="xMidYMid meet" version="1.0"><defs><g/><clipPath id="d0fa6a6561"><path d="M 84.613281 442.644531 L 586.570312 442.644531 L 586.570312 810 L 84.613281 810 Z M 84.613281 442.644531 " clip-rule="nonzero"/></clipPath><clipPath id="cc63498ebd"><path d="M 335.589844 442.644531 C 196.980469 442.644531 84.613281 555.011719 84.613281 693.621094 C 84.613281 832.234375 196.980469 944.601562 335.589844 944.601562 C 474.203125 944.601562 586.570312 832.234375 586.570312 693.621094 C 586.570312 555.011719 474.203125 442.644531 335.589844 442.644531 Z M 335.589844 442.644531 " clip-rule="nonzero"/></clipPath><clipPath id="ec1d5b2f1d"><path d="M 335.589844 270.703125 L 1104.511719 270.703125 L 1104.511719 346.5 L 335.589844 346.5 Z M 335.589844 270.703125 " clip-rule="nonzero"/></clipPath><clipPath id="e42fcd7929"><path d="M 373.488281 270.703125 L 1066.511719 270.703125 C 1087.441406 270.703125 1104.410156 287.671875 1104.410156 308.601562 C 1104.410156 329.53125 1087.441406 346.5 1066.511719 346.5 L 373.488281 346.5 C 352.558594 346.5 335.589844 329.53125 335.589844 308.601562 C 335.589844 287.671875 352.558594 270.703125 373.488281 270.703125 Z M 373.488281 270.703125 " clip-rule="nonzero"/></clipPath><clipPath id="66287bd76a"><path d="M 1044.449219 287.503906 L 1086.75 287.503906 L 1086.75 329.804688 L 1044.449219 329.804688 Z M 1044.449219 287.503906 " clip-rule="nonzero"/></clipPath><clipPath id="fdd332167b"><path d="M 1065.601562 287.503906 C 1053.917969 287.503906 1044.449219 296.972656 1044.449219 308.652344 C 1044.449219 320.335938 1053.917969 329.804688 1065.601562 329.804688 C 1077.28125 329.804688 1086.75 320.335938 1086.75 308.652344 C 1086.75 296.972656 1077.28125 287.503906 1065.601562 287.503906 Z M 1065.601562 287.503906 " clip-rule="nonzero"/></clipPath><clipPath id="ecc6159f0e"><path d="M 1061.460938 298.039062 L 1074.199219 298.039062 L 1074.199219 319.039062 L 1061.460938 319.039062 Z M 1061.460938 298.039062 " clip-rule="nonzero"/></clipPath><clipPath id="89ce700560"><path d="M 866.753906 629 L 1440 629 L 1440 810 L 866.753906 810 Z M 866.753906 629 " clip-rule="nonzero"/></clipPath><clipPath id="7213f2a46f"><path d="M 0 617.242188 L 869 617.242188 L 869 810 L 0 810 Z M 0 617.242188 " clip-rule="nonzero"/></clipPath></defs><rect x="-144" width="1728" fill="#ffffff" y="-80.999999" height="971.999992" fill-opacity="1"/><rect x="-144" width="1728" fill="#f2e9e4" y="-80.999999" height="971.999992" fill-opacity="1"/><g clip-path="url(#d0fa6a6561)"><g clip-path="url(#cc63498ebd)"><path fill="#ffbd59" d="M 84.613281 442.644531 L 586.570312 442.644531 L 586.570312 944.601562 L 84.613281 944.601562 Z M 84.613281 442.644531 " fill-opacity="1" fill-rule="nonzero"/></g></g><g clip-path="url(#ec1d5b2f1d)"><g clip-path="url(#e42fcd7929)"><path fill="#22223b" d="M 335.589844 270.703125 L 1104.511719 270.703125 L 1104.511719 346.5 L 335.589844 346.5 Z M 335.589844 270.703125 " fill-opacity="1" fill-rule="nonzero"/></g></g><g clip-path="url(#66287bd76a)"><g clip-path="url(#fdd332167b)"><path fill="#f2e9e4" d="M 1044.449219 287.503906 L 1086.75 287.503906 L 1086.75 329.804688 L 1044.449219 329.804688 Z M 1044.449219 287.503906 " fill-opacity="1" fill-rule="nonzero"/></g></g><g clip-path="url(#ecc6159f0e)"><path fill="#22223b" d="M 1063.683594 319.15625 L 1074.199219 308.644531 L 1063.609375 298.058594 L 1061.457031 300.210938 L 1069.890625 308.644531 L 1061.53125 317.003906 L 1063.683594 319.15625 " fill-opacity="1" fill-rule="nonzero"/></g><g clip-path="url(#89ce700560)"><path fill="#22223b" d="M 1486.605469 643.292969 C 1487.457031 640.757812 1487.484375 638.132812 1487.230469 635.53125 C 1487.058594 633.804688 1487.589844 632.183594 1487.628906 630.5 C 1487.644531 629.8125 1488.828125 629.613281 1488.804688 630.460938 C 1488.753906 632.179688 1489.222656 633.863281 1489.722656 635.414062 C 1490.503906 637.828125 1490.25 644.191406 1490.980469 644.546875 C 1492.753906 645.402344 1493.46875 647.726562 1495.820312 647.859375 C 1497.058594 647.925781 1497.597656 648.742188 1497.710938 650.148438 C 1500.449219 683.644531 1498.582031 690.539062 1503.167969 694.847656 C 1503.410156 695.070312 1503.730469 695.40625 1503.722656 695.675781 C 1503.621094 698.324219 1506.125 700.078125 1505.914062 702.695312 C 1511.4375 702.488281 1508.84375 701.886719 1511.347656 702.109375 C 1512.414062 702.203125 1513.476562 702.820312 1514.160156 701.226562 C 1514.566406 700.277344 1515.5 699.628906 1515.40625 698.355469 C 1515.257812 696.261719 1518.066406 694.460938 1518.085938 692.667969 C 1518.945312 692.363281 1518.925781 693.789062 1519.644531 693.316406 C 1520.113281 693.007812 1520.40625 692.4375 1520.761719 692.003906 C 1521.351562 692.164062 1521.726562 692.589844 1521.847656 692.976562 C 1522.453125 694.898438 1525.089844 695.855469 1524.402344 698.371094 C 1526.808594 701.089844 1525.464844 704.492188 1526.054688 707.539062 C 1526.152344 708.058594 1526.019531 708.660156 1526.277344 709.136719 C 1526.921875 710.339844 1527.222656 709.113281 1527.613281 737.554688 C 1527.652344 740.40625 1529.816406 738.347656 1530.019531 740.121094 C 1530.066406 740.511719 1530.277344 740.886719 1530.449219 741.25 C 1531.375 743.199219 1532.210938 740.851562 1532.519531 740.78125 C 1534.40625 740.355469 1534.097656 738.992188 1534.003906 737.613281 C 1533.847656 735.292969 1534.707031 733.019531 1534.320312 730.625 C 1534.878906 731.148438 1535.347656 731.652344 1535.324219 732.332031 C 1535.257812 734.304688 1536.003906 736.214844 1535.699219 738.207031 C 1535.558594 739.136719 1535.675781 739.960938 1536.890625 740.175781 C 1537.195312 740.230469 1538.53125 742.304688 1538.9375 740.570312 C 1539.496094 738.1875 1540.519531 735.941406 1541.003906 733.527344 C 1541.527344 730.914062 1542.007812 731.554688 1548.152344 731.457031 C 1549.746094 731.429688 1549.765625 731.414062 1549.765625 729.894531 C 1549.769531 726.976562 1550.015625 724.0625 1549.730469 721.132812 C 1549.535156 719.140625 1550.863281 718.042969 1552.820312 718.480469 C 1554.683594 718.894531 1556.574219 719.03125 1558.457031 719.222656 C 1562.785156 719.664062 1561.699219 722.480469 1562.859375 724.402344 C 1563.992188 726.277344 1564.3125 728.289062 1564.269531 730.449219 C 1564.21875 733.003906 1565.027344 745.046875 1564.824219 745.660156 C 1564.660156 746.164062 1565.0625 746.535156 1565.660156 746.546875 C 1568.808594 746.605469 1568.964844 746.933594 1569.035156 748.617188 C 1569.445312 758.972656 1568.375 759.886719 1571.683594 759.730469 C 1576.613281 759.5 1577.6875 759.484375 1578.621094 760.945312 C 1578.847656 738.09375 1575.945312 736.246094 1580.765625 735.539062 C 1582.207031 735.332031 1581.574219 734.761719 1581.738281 729.429688 C 1581.875 724.996094 1586.183594 728.105469 1588.675781 726.363281 C 1589.214844 725.988281 1590.613281 727.140625 1590.503906 728.976562 C 1590.429688 730.277344 1590.617188 731.554688 1590.769531 732.839844 C 1590.863281 733.640625 1591.171875 734.277344 1592.054688 734.457031 C 1592.933594 734.636719 1593.496094 735.46875 1594.425781 735.585938 C 1594.957031 735.65625 1595.1875 736.125 1595.257812 736.625 C 1595.257812 736.628906 1596.214844 756.261719 1596.214844 756.261719 C 1596.121094 757.1875 1596.453125 757.765625 1597.316406 757.882812 C 1600.519531 758.3125 1597.785156 763.136719 1600.40625 767.039062 C 1600.890625 767.761719 1599.214844 769.917969 1601.179688 770.242188 C 1603.289062 770.585938 1603.394531 770.671875 1603.691406 769.375 C 1603.863281 768.621094 1604.160156 768.007812 1604.832031 767.851562 C 1607.015625 767.339844 1604.96875 765.078125 1605.746094 763.695312 C 1605.949219 763.332031 1605.792969 762.769531 1605.5625 762.324219 C 1604.84375 760.9375 1604.980469 759.421875 1604.894531 757.9375 C 1604.835938 756.902344 1605.351562 756.472656 1606.300781 756.320312 C 1607.632812 756.101562 1608.949219 755.695312 1610.285156 755.613281 C 1612.574219 755.476562 1611.699219 753.132812 1614.613281 753.15625 C 1615.988281 753.167969 1617.328125 752.199219 1618.757812 753.09375 C 1619.121094 753.324219 1619.648438 752.996094 1620.003906 752.609375 C 1621.828125 750.613281 1622.238281 754.210938 1627.015625 754.121094 C 1627.886719 754.105469 1628.800781 753.917969 1629.621094 754.378906 C 1630.132812 754.664062 1630.914062 754.410156 1631.058594 755.476562 C 1631.296875 757.210938 1638.734375 755.703125 1639.914062 756.699219 C 1640.078125 756.839844 1640.429688 756.648438 1640.601562 756.332031 C 1640.320312 755.742188 1639.371094 755.863281 1639.160156 755.007812 C 1639.773438 754.410156 1640.710938 755.109375 1641.359375 754.535156 C 1641.910156 754.046875 1642.554688 753.730469 1643.382812 753.75 C 1646.003906 753.816406 1645.226562 748.640625 1645.171875 808.886719 C 1645.164062 813.75 1687.390625 812.0625 1191.390625 812.0625 C 834.644531 812.0625 861.191406 813.359375 861.191406 809.378906 C 861.191406 716.65625 859.984375 724.964844 863.957031 724.917969 C 867.753906 724.875 868.890625 724.304688 869.058594 726.722656 C 869.1875 728.574219 868.726562 730.007812 870.40625 730.316406 C 872.085938 730.625 870.464844 732.683594 873.109375 733.148438 C 875.402344 733.550781 875.339844 733.621094 875.777344 735.953125 C 876.1875 738.140625 875.484375 741.085938 876.503906 741.175781 C 876.953125 741.214844 877.609375 741.597656 877.789062 740.796875 C 877.894531 740.347656 878.214844 740.160156 878.488281 740.335938 C 879.359375 740.898438 880.707031 739.792969 881.3125 741.171875 C 890.320312 743.335938 888.566406 737.328125 892 740.457031 C 895.109375 743.292969 895.429688 740.085938 896.832031 741.117188 C 897.578125 741.667969 898.25 741.433594 898.1875 740.703125 C 897.945312 737.914062 899.175781 735.273438 898.859375 732.46875 C 898.652344 730.636719 899.296875 730.15625 901.191406 730.058594 C 902.410156 729.996094 921.742188 729.171875 925.113281 730.667969 C 927.550781 731.75 930.292969 731.191406 934.460938 732.558594 C 935.589844 732.925781 936.964844 733.554688 938.261719 732.734375 C 938.316406 732.699219 938.414062 732.65625 938.449219 732.679688 C 941.269531 734.527344 941.550781 731.515625 942.503906 733.0625 C 943.582031 734.800781 944.679688 736.484375 943.949219 738.746094 C 943.164062 741.175781 943.535156 743.730469 943.421875 746.234375 C 943.097656 753.300781 943.257812 752.699219 944.75 752.613281 C 953.050781 752.132812 953.070312 752.832031 953.640625 753.863281 C 954.875 756.105469 954.054688 758.140625 954.425781 759.773438 C 955.277344 758.402344 956.375 705.355469 956.992188 698.070312 C 958.101562 684.980469 956.246094 685.167969 960.074219 682.925781 C 960.34375 682.769531 960.875 682.816406 960.929688 682.496094 C 961.125 681.351562 961.71875 680.808594 962.878906 680.582031 C 964.226562 680.316406 962.78125 677.769531 964.609375 676.992188 C 965.605469 676.570312 965.6875 667.984375 965.722656 665.816406 C 966.074219 644.875 965.484375 644.542969 968.835938 644.144531 C 975.679688 643.339844 976.117188 640.4375 978.207031 642.511719 C 979.082031 643.382812 980.792969 643.710938 981.128906 642.628906 C 981.511719 641.402344 982.535156 641.039062 983.644531 640.855469 C 989.757812 639.84375 995.8125 640.140625 1001.800781 641.714844 C 1006.167969 642.863281 1002.105469 646.347656 1006.046875 646.4375 C 1016.734375 646.671875 1017.566406 646.164062 1019.058594 647.507812 C 1024.6875 652.574219 1025.128906 625.640625 1021.597656 759.433594 C 1021.425781 765.949219 1021.5 772.472656 1021.070312 778.984375 C 1020.964844 780.605469 1021.316406 781.015625 1022.9375 781.113281 C 1023.585938 781.152344 1024.203125 781.539062 1024.910156 781.179688 C 1025.996094 780.628906 1026.664062 779.097656 1026.382812 777.546875 C 1025.714844 773.898438 1028.53125 776.902344 1029.90625 773.3125 C 1030.441406 771.917969 1030.574219 770.078125 1032.117188 769.128906 C 1032.675781 768.785156 1032.171875 768.0625 1032.589844 767.648438 C 1033.40625 767.339844 1033.261719 768.621094 1034.121094 768.445312 C 1034.832031 763.625 1035 754.390625 1034.910156 753.042969 C 1034.808594 751.476562 1035.808594 751.542969 1035.476562 750.519531 C 1034.710938 748.15625 1035.96875 745.71875 1035.132812 743.328125 C 1034.777344 742.308594 1035.6875 740.855469 1036.617188 740.542969 C 1038.257812 739.996094 1039.085938 738.703125 1039.589844 737.238281 C 1040.132812 735.660156 1041.0625 735.847656 1042.730469 735.808594 C 1044.738281 735.765625 1044.746094 735.773438 1044.953125 737.761719 C 1045.117188 739.339844 1046.457031 739.992188 1048.03125 739.761719 C 1049.105469 739.605469 1051.535156 737.582031 1053.574219 742.039062 C 1055.90625 747.136719 1053.898438 747.820312 1055.609375 748.132812 C 1058.253906 748.613281 1057.714844 748.242188 1057.730469 759.144531 C 1057.730469 760.679688 1057.644531 761.652344 1058.519531 762.136719 C 1059.707031 762.792969 1062.277344 760.464844 1061.300781 758.347656 C 1060.4375 756.480469 1061.691406 757.863281 1062.089844 753.269531 C 1062.742188 753.179688 1063.371094 754.238281 1063.898438 753.539062 C 1064.554688 752.660156 1065.863281 752.414062 1066.007812 751.015625 C 1066.226562 748.867188 1066.316406 748.863281 1068.472656 748.40625 C 1070.0625 748.066406 1068.296875 747.101562 1068.203125 746.539062 C 1068.421875 745.378906 1071.003906 747.328125 1072.339844 745.859375 C 1074.230469 746.183594 1076.339844 746.050781 1077.351562 748.234375 C 1078.011719 749.660156 1081.058594 748.652344 1081.386719 752.898438 C 1081.65625 756.414062 1080.949219 758.644531 1081.28125 764 C 1081.386719 765.6875 1081.433594 765.789062 1083.894531 765.753906 C 1086.140625 765.722656 1086.078125 765.921875 1086.050781 760.195312 C 1086.046875 759.714844 1085.972656 759.195312 1086.226562 758.796875 C 1087.675781 756.558594 1086.820312 754.070312 1087.015625 751.703125 C 1087.46875 746.171875 1088.203125 749.007812 1088.1875 746.554688 C 1088.179688 744.875 1090.039062 743.761719 1090.628906 740.890625 C 1090.914062 739.488281 1092.296875 739.078125 1094.023438 739.472656 C 1094.585938 739.109375 1094.003906 737.9375 1094.742188 738 C 1095.691406 738.082031 1095.230469 739.089844 1095.265625 739.683594 C 1095.664062 746.414062 1097.792969 748.457031 1097.222656 755.183594 C 1097.097656 756.644531 1097.128906 758.101562 1097.832031 759.550781 C 1098.382812 760.6875 1097.960938 762.097656 1098.003906 763.386719 C 1098.078125 765.515625 1097.773438 765.128906 1102.824219 765.761719 C 1106.566406 766.226562 1104.054688 768.804688 1105.964844 768.707031 C 1107.761719 768.609375 1106.265625 763.242188 1107.34375 738.140625 C 1107.414062 736.511719 1107.589844 736.144531 1109.21875 736.085938 C 1111.351562 736.007812 1112.925781 735.320312 1113.863281 733.347656 C 1113.96875 733.128906 1114.242188 732.855469 1114.457031 732.839844 C 1123.769531 732.085938 1118.691406 734.9375 1124.28125 736.277344 C 1126.5625 736.824219 1126.992188 738.871094 1129.222656 738.816406 C 1131.867188 738.75 1134.515625 738.941406 1137.152344 738.433594 C 1138.46875 738.179688 1139.777344 738.882812 1141.164062 738.835938 C 1144.238281 738.734375 1144.242188 738.816406 1144.449219 735.710938 C 1144.53125 734.460938 1144.570312 733.398438 1146.347656 733.183594 C 1148.773438 732.890625 1148.785156 730.738281 1148.828125 720.785156 C 1148.832031 719.972656 1149.144531 719.242188 1149.082031 718.402344 C 1149.019531 717.523438 1149.34375 716.613281 1150.28125 715.980469 C 1152.148438 714.722656 1152.445312 712.257812 1155.160156 712.523438 C 1156.21875 712.628906 1157.507812 711.84375 1158.171875 713.371094 C 1158.375 713.839844 1160.710938 712.492188 1160.851562 716.066406 C 1160.894531 717.085938 1161.671875 717.84375 1161.792969 718.921875 C 1162.691406 727.042969 1159.945312 730.625 1165.136719 730.640625 C 1174.859375 730.671875 1173.988281 731.042969 1174.019531 729.09375 C 1174.410156 707.121094 1174.445312 717.625 1175.410156 708.9375 C 1175.523438 707.917969 1176.011719 707.339844 1177.125 707.347656 C 1189.332031 707.410156 1186.828125 706.078125 1188.136719 712.796875 C 1188.710938 715.722656 1188.640625 719.054688 1188.632812 729.671875 C 1188.628906 736.929688 1192.046875 730.546875 1191.898438 739.695312 C 1191.597656 758.351562 1191.078125 760.0625 1193.183594 759.988281 C 1194.742188 759.933594 1196.117188 760.820312 1197.664062 760.964844 C 1198.515625 761.046875 1198.839844 761.796875 1198.832031 762.636719 C 1198.757812 773.101562 1198.316406 774.988281 1200.78125 773.882812 C 1201.808594 773.421875 1201.25 773.351562 1204.503906 774.667969 C 1204.292969 776.410156 1205.472656 775.941406 1206.410156 775.875 C 1207.101562 775.828125 1207.925781 777.269531 1208.292969 776.617188 C 1210.652344 772.417969 1208.78125 754.230469 1209.710938 746.71875 C 1209.960938 744.710938 1210.066406 744.613281 1212.140625 744.699219 C 1213.339844 744.75 1213.628906 744.554688 1213.597656 743.371094 C 1213.480469 739.085938 1215.160156 740.710938 1214.824219 736.984375 C 1214.824219 736.984375 1215.167969 711.789062 1214.765625 703.863281 C 1214.703125 702.675781 1215.425781 701.824219 1215.542969 700.753906 C 1215.589844 700.320312 1216.066406 700.019531 1216.453125 700.074219 C 1217.628906 700.234375 1218.609375 699.5 1219.804688 699.535156 C 1222.277344 699.605469 1222.761719 696.480469 1223.535156 696.234375 C 1225.007812 695.769531 1224.925781 697.113281 1225.394531 698.386719 C 1224.378906 698.140625 1223.382812 697.902344 1222.359375 699.308594 C 1224.277344 698.78125 1225.675781 699.957031 1227.265625 699.4375 C 1227.394531 699.398438 1227.625 699.316406 1227.632812 699.335938 C 1228.53125 701.183594 1231.695312 699.222656 1231.488281 701.941406 C 1231.296875 704.441406 1231.835938 738.132812 1231.300781 742.023438 C 1230.84375 745.3125 1233.679688 746.753906 1235.667969 745.9375 C 1236.550781 745.570312 1237.421875 745.160156 1238.394531 745.214844 C 1239.089844 745.253906 1239.757812 744.539062 1240.492188 745.289062 C 1242.289062 747.132812 1242.5 746.613281 1242.511719 751.460938 C 1242.621094 793.996094 1241.386719 779.714844 1246.996094 782.734375 C 1249.460938 784.0625 1248.390625 778.453125 1250.402344 776.550781 C 1250.804688 776.167969 1250.945312 775.589844 1250.886719 775.039062 C 1250.519531 771.542969 1250.964844 768.035156 1250.710938 764.539062 C 1250.632812 763.515625 1250.707031 762.453125 1251.191406 761.554688 C 1252.503906 759.128906 1251.292969 757.3125 1252.398438 753.996094 C 1252.441406 753.871094 1252.589844 753.691406 1252.554688 753.640625 C 1250.945312 751.425781 1254.386719 751.503906 1254.265625 749.910156 C 1254.214844 749.207031 1264.625 749.261719 1266.527344 749.304688 C 1269.492188 749.375 1269.449219 748.746094 1269.78125 747.101562 C 1270.320312 744.414062 1271.589844 746.957031 1271.929688 743.320312 C 1272.128906 741.160156 1272.132812 738.984375 1272.285156 736.820312 C 1272.421875 734.945312 1272.851562 733.089844 1272.3125 731.195312 C 1272.136719 730.578125 1272.1875 729.832031 1272.867188 729.363281 C 1273.546875 729.410156 1273.539062 731.007812 1274.386719 730.675781 C 1274.765625 730.53125 1274.6875 730.117188 1274.617188 729.785156 C 1274.460938 729.066406 1274.863281 728.554688 1275.125 727.925781 C 1277.941406 721.183594 1276.894531 722.007812 1277.214844 720.996094 C 1277.625 719.707031 1278.488281 720.144531 1278.421875 720.988281 C 1278.175781 724.105469 1281.089844 729.191406 1281.28125 730.746094 C 1281.339844 731.195312 1281.882812 731.367188 1282.046875 730.703125 C 1282.351562 729.484375 1282.785156 730.03125 1283.207031 730.589844 C 1284.042969 731.699219 1283.320312 749.972656 1284.15625 753.105469 C 1284.34375 753.8125 1284.703125 754.125 1285.394531 754.230469 C 1286.867188 754.460938 1286.574219 753.761719 1286.578125 749.226562 C 1286.585938 742.523438 1286.179688 741.546875 1288.007812 741.222656 C 1289.925781 740.886719 1287.675781 738.503906 1290.386719 738.390625 C 1293.023438 738.277344 1293.515625 738.675781 1293.476562 732.964844 C 1293.464844 730.910156 1294.539062 729.417969 1296.480469 728.929688 C 1297.003906 728.796875 1297.683594 728.855469 1297.796875 728.191406 C 1298.046875 726.710938 1299.230469 726.679688 1300.265625 726.601562 C 1303.117188 726.378906 1306.609375 726.882812 1306.660156 727.1875 C 1306.902344 728.625 1308.425781 728.734375 1309.125 729.617188 C 1310.910156 731.886719 1310.230469 731.386719 1310.433594 741.492188 C 1310.515625 745.496094 1313.320312 742.445312 1313.71875 745.382812 C 1314.183594 748.800781 1313.785156 752.003906 1314.113281 757.804688 C 1314.164062 758.753906 1314.246094 759.671875 1316.269531 759.488281 C 1321.207031 759.042969 1326.128906 759.832031 1331.070312 759.65625 C 1333.039062 759.585938 1335.03125 759.183594 1336.953125 759.394531 C 1338.675781 759.585938 1345.398438 759.660156 1345.707031 759.648438 C 1347.777344 759.570312 1346.800781 761.148438 1347.453125 762.484375 C 1347.910156 763.421875 1349.003906 762.933594 1349.003906 762.226562 C 1348.996094 759.992188 1348.609375 762.574219 1348.878906 757.597656 C 1349.03125 754.824219 1347.105469 750.582031 1350.9375 750.984375 C 1352.171875 751.117188 1353.378906 750.9375 1354.597656 750.914062 C 1356.585938 750.871094 1355.550781 750.753906 1355.8125 733.230469 C 1355.957031 723.757812 1354.863281 714.074219 1355.863281 706.863281 C 1356.101562 705.140625 1358.183594 705.238281 1357.859375 703.367188 C 1357.816406 703.125 1358.195312 702.882812 1358.464844 702.980469 C 1359.519531 703.355469 1360.230469 702.800781 1361.046875 702.257812 C 1361.773438 701.773438 1363.234375 701.992188 1367.105469 702.070312 C 1368.871094 702.109375 1368.65625 703.308594 1369.570312 703.273438 C 1372.5 703.171875 1371.710938 705.542969 1371.984375 713.652344 C 1372.4375 727.152344 1371.617188 740.3125 1372.921875 755.976562 C 1373.066406 757.726562 1373.605469 757.570312 1374.238281 757.585938 C 1375.113281 757.605469 1375.433594 759.894531 1375.015625 720.542969 C 1374.898438 709.476562 1374.609375 710.316406 1375.796875 708.683594 C 1379.132812 704.097656 1377.191406 704.941406 1378.5625 702.359375 C 1381.324219 697.15625 1383.957031 697.503906 1385.652344 699.550781 C 1387.058594 701.242188 1388.839844 702.761719 1389.054688 705.191406 C 1390.375 706.15625 1389.933594 708.074219 1391.277344 709.128906 C 1392.402344 710.011719 1391.691406 709.496094 1392.535156 750.148438 C 1392.851562 765.292969 1393.332031 766.902344 1392.964844 771.304688 C 1392.765625 773.703125 1393.625 774.851562 1395.867188 775.324219 C 1397.472656 775.664062 1398.929688 776.484375 1400.691406 776.410156 C 1401.988281 776.355469 1403.230469 777.222656 1404.367188 777.898438 C 1407.332031 779.660156 1405.21875 784.488281 1407.699219 783.046875 C 1416.507812 777.933594 1414.144531 795.847656 1413.710938 744.566406 C 1413.6875 741.695312 1412.902344 741.410156 1416.28125 739.523438 C 1416.625 739.332031 1416.941406 739.464844 1417.253906 739.585938 C 1418.628906 740.121094 1420.035156 740.09375 1421.476562 739.949219 C 1425.421875 739.554688 1426.601562 741.421875 1427.972656 738.386719 C 1428.707031 736.765625 1431.84375 736.753906 1433.167969 737.835938 C 1433.855469 737.199219 1433.894531 736.464844 1433.652344 735.589844 C 1432.898438 732.890625 1434.222656 728.761719 1433.199219 724.929688 C 1433.113281 724.605469 1433.074219 724.242188 1433.132812 723.917969 C 1433.609375 721.355469 1432.476562 718.730469 1433.445312 716.191406 C 1432.753906 715.355469 1433.667969 714.640625 1433.636719 713.832031 C 1433.609375 713.066406 1433.277344 712.371094 1433.414062 711.535156 C 1433.59375 710.480469 1433.328125 709.355469 1433.222656 708.273438 C 1433.152344 707.53125 1434.066406 706.695312 1433.679688 705.636719 C 1433.53125 705.226562 1434.035156 704.585938 1433.199219 704.40625 C 1433.121094 704.390625 1433.019531 704.085938 1433.035156 704.074219 C 1434.5625 703.089844 1432.71875 702.089844 1433.050781 701.0625 C 1433.386719 700.015625 1433.460938 698.886719 1433.96875 697.878906 C 1434.050781 697.71875 1434.121094 697.429688 1434.039062 697.328125 C 1433.289062 696.414062 1433.03125 695.472656 1433.261719 694.242188 C 1433.441406 693.296875 1433.085938 692.238281 1433.425781 691.292969 C 1433.65625 690.640625 1431.339844 689.042969 1433.886719 687.277344 C 1439.074219 683.691406 1439.453125 683.878906 1439.539062 682.511719 C 1439.625 681.097656 1439.90625 680.898438 1441.285156 680.855469 C 1442.910156 680.804688 1444.523438 680.792969 1446.113281 681.316406 C 1455.199219 684.316406 1452.890625 674.351562 1453.808594 705.105469 C 1455.164062 750.550781 1454.066406 760.734375 1456.015625 763.820312 C 1457.144531 765.605469 1458.03125 763.976562 1459.679688 765.5 C 1460.300781 766.070312 1460.785156 765.476562 1461.261719 765.109375 C 1462.171875 764.398438 1460.847656 764.554688 1460.867188 763.761719 C 1460.957031 760.117188 1459.484375 751.664062 1461.628906 750.476562 C 1461.859375 750.351562 1462.167969 750.144531 1462.203125 749.9375 C 1462.582031 747.597656 1464.21875 748.433594 1468.769531 747.839844 C 1474.09375 747.140625 1471.789062 751.585938 1473.128906 764.09375 C 1473.355469 766.234375 1472.507812 767.3125 1473.371094 768.601562 C 1474.054688 768.390625 1473.9375 767.855469 1473.941406 767.410156 C 1474.046875 751.324219 1476.253906 662.929688 1476.285156 661.125 C 1476.429688 653.042969 1475.921875 652.171875 1477.859375 650.894531 C 1479.035156 650.121094 1480.394531 649.464844 1479.800781 647.585938 C 1479.335938 646.109375 1484.402344 646.71875 1483.421875 643.019531 C 1483.113281 641.859375 1483.46875 642.582031 1484.496094 632.980469 C 1484.53125 632.652344 1484.4375 632.289062 1485.019531 632.128906 C 1485.558594 635.867188 1485.738281 639.648438 1486.636719 643.3125 C 1485.929688 643.867188 1486.296875 644.222656 1486.820312 644.625 C 1487.199219 644.035156 1486.8125 643.683594 1486.605469 643.292969 Z M 1486.605469 643.292969 " fill-opacity="1" fill-rule="nonzero"/></g><path fill="#22223b" d="M 1222.84375 694.199219 C 1222.457031 694.054688 1222.6875 693.515625 1223.207031 693.507812 C 1223.84375 693.496094 1223.316406 694.375 1222.84375 694.199219 Z M 1222.84375 694.199219 " fill-opacity="1" fill-rule="nonzero"/><path fill="#22223b" d="M 883.78125 740.984375 C 883.679688 741.050781 883.5625 741.1875 883.480469 741.171875 C 883.238281 741.117188 883.226562 740.914062 883.347656 740.742188 C 883.402344 740.667969 883.5625 740.667969 883.671875 740.632812 C 883.710938 740.75 883.746094 740.867188 883.78125 740.984375 Z M 883.78125 740.984375 " fill-opacity="1" fill-rule="nonzero"/><path fill="#22223b" d="M 887.300781 739.65625 C 887.050781 739.675781 886.78125 739.789062 886.582031 739.539062 C 886.273438 739.144531 887.308594 738.867188 887.269531 739.683594 Z M 887.300781 739.65625 " fill-opacity="1" fill-rule="nonzero"/><path fill="#22223b" d="M 1227.171875 697.859375 L 1227.140625 697.75 L 1227.242188 697.765625 Z M 1227.171875 697.859375 " fill-opacity="1" fill-rule="nonzero"/><path fill="#22223b" d="M 887.269531 739.683594 C 887.269531 739.683594 887.304688 739.652344 887.304688 739.652344 C 887.300781 739.65625 887.269531 739.683594 887.269531 739.683594 Z M 887.269531 739.683594 " fill-opacity="1" fill-rule="nonzero"/><g clip-path="url(#7213f2a46f)"><path fill="#22223b" d="M 67.488281 617.441406 C 68.007812 617.378906 68.523438 617.308594 69.046875 617.238281 C 69.0625 623.261719 69.105469 629.28125 69.058594 635.296875 C 68.902344 637.429688 69.640625 639.488281 69.664062 641.59375 C 69.039062 644.519531 68.96875 647.511719 69.234375 650.484375 C 71.601562 650.574219 73.894531 651.175781 76.191406 651.710938 C 76.355469 652.914062 76.46875 654.117188 76.601562 655.324219 C 77.675781 655.835938 78.75 656.339844 79.824219 656.867188 C 80.316406 665.960938 78.46875 756.671875 81.285156 765.351562 C 82.828125 769.59375 81.859375 774.191406 82.027344 778.601562 C 82.699219 778.59375 83.378906 778.589844 84.0625 778.585938 C 84.371094 773.484375 85.628906 778.785156 85.53125 758.496094 C 86.953125 758.359375 88.375 758.238281 89.800781 758.09375 C 89.914062 757.132812 90.039062 756.175781 90.183594 755.226562 C 91.605469 755.246094 93.027344 755.253906 94.453125 755.246094 C 94.847656 757.042969 96.105469 758.28125 97.898438 758.667969 C 98.058594 763.09375 97.796875 767.53125 98.074219 771.960938 C 98.433594 771.953125 99.160156 771.941406 99.519531 771.933594 C 99.503906 760 99.519531 748.070312 99.625 736.140625 C 105.453125 735.894531 111.300781 735.933594 117.128906 736.21875 C 117.34375 746.433594 116.144531 746.074219 119.761719 748.230469 C 120.585938 685.058594 117.667969 699.085938 124.027344 693.75 C 124.449219 689.085938 123.710938 684.367188 124.273438 679.707031 C 125.089844 677.792969 126.367188 676.089844 127.113281 674.128906 C 127.679688 675.203125 128.242188 676.289062 128.8125 677.367188 C 131.988281 677.261719 135.160156 677.328125 138.335938 677.386719 C 138.410156 678.285156 138.484375 679.1875 138.5625 680.085938 C 139.023438 680.082031 139.488281 680.074219 139.953125 680.070312 C 140.101562 679.125 140.261719 678.179688 140.441406 677.234375 C 141.203125 677.222656 141.980469 677.21875 142.753906 677.203125 C 143.089844 683.132812 142.554688 711.4375 142.855469 723.171875 C 144.253906 723.210938 145.660156 723.195312 147.066406 723.167969 C 147.136719 732.835938 146.820312 742.503906 147.203125 752.160156 C 148.886719 752.1875 150.570312 752.160156 152.257812 752.132812 C 152.328125 753.875 152.386719 755.617188 152.449219 757.355469 C 153.910156 757.410156 155.375 757.433594 156.835938 757.453125 C 154.96875 751.527344 156.742188 756.839844 155.828125 728.261719 C 156.589844 715.90625 155.335938 703.511719 156.121094 691.175781 C 164.152344 691.046875 172.1875 691.144531 180.222656 691.074219 C 180.828125 698.554688 179.984375 706.050781 180.277344 713.535156 C 182.53125 713.792969 184.65625 713.011719 186.820312 712.550781 C 196.410156 714.726562 194.125 713.308594 194.183594 724.054688 C 198.046875 723.941406 201.914062 723.964844 205.773438 724.238281 C 205.804688 725.03125 205.847656 725.828125 205.890625 726.625 C 210.839844 729.917969 208.21875 729.046875 213.382812 729.515625 C 213.453125 751.09375 212.761719 751.714844 214.625 752.015625 C 215.019531 741.382812 214.519531 730.734375 214.769531 720.101562 C 218.578125 719.621094 221.992188 717.511719 225.808594 717.167969 C 230.140625 718.066406 234.570312 717.78125 238.960938 717.839844 C 239.15625 726.738281 238.84375 735.636719 239.144531 744.527344 C 242.152344 744.027344 239.28125 705.464844 240.53125 694.488281 C 240.960938 694.386719 251.8125 691.792969 253.105469 690.929688 C 253.683594 689.882812 254.089844 688.753906 254.570312 687.660156 C 255.144531 688.476562 255.726562 689.289062 256.328125 690.101562 C 262.917969 689.511719 269.519531 690.011719 276.121094 690.074219 C 276.496094 704.65625 275.960938 719.257812 276.25 733.839844 C 277.976562 733.910156 279.707031 733.949219 281.4375 734.035156 C 281.539062 735.058594 281.640625 736.082031 281.753906 737.109375 C 285.753906 737.210938 289.761719 737.230469 293.769531 737.113281 C 293.757812 733.511719 293.539062 729.910156 293.800781 726.316406 C 296.375 726.363281 298.960938 726.40625 301.542969 726.242188 C 301.589844 723.480469 301.3125 720.664062 302.019531 717.960938 C 302.832031 714.871094 302.703125 711.589844 303.746094 708.550781 C 304.886719 706.425781 304.871094 708.601562 309.324219 697.480469 C 310.417969 694.941406 309.894531 692.101562 310.492188 689.457031 C 310.835938 687.949219 311.113281 686.433594 311.324219 684.898438 C 312.164062 686.003906 312.667969 687.308594 312.550781 688.71875 C 312.105469 697.109375 316.945312 703.742188 318.859375 707.738281 C 320.804688 714.214844 320.488281 712.5 320.429688 747.585938 C 321.511719 747.597656 322.59375 747.601562 323.691406 747.601562 C 323.839844 737.042969 323.828125 726.488281 323.824219 715.929688 C 323.753906 713.761719 324.796875 711.757812 324.847656 709.597656 C 324.925781 707.507812 324.757812 705.371094 325.378906 703.34375 C 326.34375 700.332031 325.886719 697.144531 326.109375 694.050781 C 326.066406 692.734375 327.269531 691.933594 327.898438 690.910156 C 329.378906 688.957031 328.804688 686.160156 330.382812 684.285156 C 332.460938 681.835938 332.148438 678.390625 332.960938 675.453125 C 334.082031 671.851562 333.445312 668.042969 333.53125 664.339844 C 333.636719 664.34375 333.859375 664.355469 333.964844 664.359375 C 333.566406 683.011719 335.238281 677.792969 331.933594 683.203125 C 333.578125 683.527344 335.246094 683.761719 336.925781 683.914062 C 337.390625 685.816406 337.839844 687.71875 338.34375 689.609375 C 338.792969 691.214844 340.609375 692.234375 340.460938 694.035156 C 340.476562 695.847656 340.652344 697.664062 341.242188 699.394531 C 346.085938 698.289062 351.136719 698.46875 356.0625 698.84375 C 358.921875 703.300781 362.902344 706.921875 367.054688 710.171875 C 367.074219 710.394531 367.09375 747.34375 367.097656 747.570312 C 369.183594 747.625 371.363281 747.222656 373.378906 747.988281 C 376.414062 749.15625 379.722656 748.34375 382.890625 748.644531 C 383.683594 747.601562 384.507812 746.585938 385.394531 745.609375 C 386.769531 746.683594 388.25 747.785156 390.097656 747.65625 C 390.269531 711.5 388.164062 705.4375 397.664062 703.570312 C 397.65625 702.347656 397.648438 701.125 397.652344 699.898438 C 398.570312 699.3125 399.488281 698.691406 400.511719 698.265625 C 401.90625 699.550781 400.875 701.714844 401.546875 703.320312 C 401.957031 704.226562 402.503906 705.066406 402.925781 705.976562 C 403.597656 707.3125 403.6875 709.21875 405.523438 709.40625 C 406.109375 708.65625 406.324219 707.246094 407.523438 707.277344 C 415.953125 706.757812 410.671875 707.9375 420.476562 709.40625 C 420.480469 712.152344 420.472656 714.902344 420.488281 717.648438 C 422.644531 717.820312 424.808594 717.878906 426.980469 717.902344 C 427.191406 725.605469 426.929688 733.316406 427.089844 741.023438 C 428.144531 741.445312 429.195312 741.878906 430.253906 742.324219 C 430.503906 745.941406 430.402344 749.566406 430.535156 753.195312 C 431.140625 753.191406 431.75 753.183594 432.363281 753.183594 C 435.074219 741.445312 434.960938 743.371094 447.558594 743.503906 C 448.300781 743.582031 449.328125 743.449219 449.660156 744.320312 C 451.546875 748.96875 453.84375 753.613281 453.933594 758.746094 C 453.886719 760.589844 456.050781 761.609375 455.878906 763.492188 C 455.90625 774.941406 455.675781 786.394531 455.996094 797.84375 C 457.800781 797.894531 459.613281 797.894531 461.429688 797.84375 C 461.535156 792.855469 461.28125 787.855469 461.550781 782.871094 C 463.621094 782.773438 465.691406 782.746094 467.765625 782.714844 C 467.835938 781.015625 467.921875 779.320312 468.042969 777.628906 C 470.394531 777.644531 472.746094 777.636719 475.101562 777.671875 C 475.328125 803.648438 474.414062 804.144531 476.453125 804.359375 C 476.875 796.359375 476.535156 742.898438 476.542969 742.84375 C 477.886719 740.449219 480.964844 741.453125 483.167969 740.898438 C 488.464844 739.171875 493.785156 740.175781 495.394531 741.265625 C 496.632812 741.949219 497.328125 743.230469 498.035156 744.40625 C 503.476562 744.0625 508.921875 744.675781 514.371094 744.558594 C 515.171875 747.359375 514.8125 762.183594 514.792969 762.609375 C 518.308594 762.433594 521.832031 762.601562 525.351562 762.476562 C 525.625 760.734375 525.921875 759 526.351562 757.289062 C 528.125 759.425781 527.78125 762.628906 529.808594 764.597656 C 532.539062 768.203125 531.527344 762.421875 531.84375 795.742188 C 534.898438 796.078125 537.597656 794.289062 540.632812 794.351562 C 540.910156 786.058594 540.207031 755.40625 540.59375 742.230469 C 543.714844 742.039062 546.84375 742.199219 549.953125 742.578125 C 550.996094 741.277344 552.007812 739.933594 552.957031 738.550781 C 554.882812 739.832031 557.136719 740.378906 559.445312 740.3125 C 559.597656 741.015625 559.765625 741.714844 559.945312 742.417969 C 562.300781 742.445312 564.664062 742.5625 567.019531 742.78125 C 567.292969 745.785156 567.261719 748.796875 567.148438 751.808594 C 570.925781 751.828125 574.191406 754.09375 577.953125 754.351562 C 578.667969 755.359375 579.625 756.152344 580.75 756.683594 C 581.316406 760.5 581.011719 764.347656 581.023438 768.183594 C 585.671875 767.96875 590.320312 767.621094 594.980469 767.914062 C 595.242188 760.597656 594.804688 727.070312 595.109375 710.1875 C 598.253906 710.054688 601.410156 710.089844 604.570312 710.074219 C 604.539062 706.890625 604.933594 703.722656 604.851562 700.542969 C 608.289062 700.410156 611.730469 700.523438 615.171875 700.472656 C 616.464844 696.097656 615.050781 696.847656 620.441406 696.199219 C 620.527344 687.585938 620.132812 678.921875 621.046875 670.34375 C 622.21875 672.835938 621.898438 687.566406 621.957031 696.011719 C 623.855469 696.261719 625.417969 697.34375 626.765625 698.644531 C 627.976562 699.859375 630.050781 700.023438 631.089844 701.28125 C 631.554688 704.753906 631.230469 751.667969 631.3125 802.359375 C 633.457031 802.417969 635.613281 802.417969 637.769531 802.363281 C 637.855469 797.019531 637.535156 760.621094 638.039062 755.320312 C 639.839844 755.25 641.644531 755.15625 643.449219 755 C 643.550781 751.859375 642.929688 748.554688 644.257812 745.585938 C 647.328125 745.546875 650.40625 745.539062 653.484375 745.664062 C 653.839844 748.691406 653.78125 751.730469 653.628906 754.765625 C 657.582031 757.351562 656.574219 753.085938 656.636719 773.238281 C 659.894531 773.160156 663.164062 773.058594 666.429688 773.316406 C 666.824219 777.125 666.445312 780.945312 666.558594 784.753906 C 668.277344 785.324219 670.089844 785.578125 671.835938 786.085938 C 671.832031 788.535156 671.675781 790.988281 671.835938 793.449219 C 674.039062 793.496094 676.246094 793.488281 678.449219 793.527344 C 678.402344 790.097656 678.101562 754.464844 678.691406 751.015625 C 682.101562 751.125 685.550781 750.820312 688.949219 751.285156 C 691.714844 752.035156 694.457031 752.992188 697.363281 753.078125 C 697.40625 754.097656 697.449219 755.117188 697.523438 756.144531 C 699.070312 756.105469 700.625 756.058594 702.183594 756.015625 C 702.183594 754.355469 702.179688 752.691406 702.199219 751.035156 C 704.460938 750.679688 706.746094 750.695312 709.027344 750.914062 C 709.152344 751.667969 709.289062 752.414062 709.449219 753.164062 C 711.570312 753.183594 713.699219 753.195312 715.828125 753.195312 C 715.914062 752.097656 715.988281 751 716.066406 749.902344 C 718.382812 749.902344 720.707031 749.828125 723.03125 749.808594 C 723.03125 749.808594 723.394531 785.707031 723.191406 803.425781 C 723.941406 803.40625 724.691406 803.390625 725.460938 803.378906 C 725.796875 796.328125 725.355469 727.425781 725.539062 725.195312 C 728.007812 725.03125 730.480469 725.050781 732.953125 725.148438 C 732.820312 719.707031 732.761719 686.761719 732.992188 682.453125 C 737.25 682.148438 741.519531 682.347656 745.78125 682.5 C 745.882812 680.652344 745.8125 678.800781 745.824219 676.949219 C 745.746094 675.554688 746.996094 674.535156 747.078125 673.183594 C 746.792969 667.152344 746.875 661.113281 746.710938 655.070312 C 746.851562 653.414062 746.273438 651.347656 747.6875 650.101562 C 753.515625 644.136719 750.144531 647.660156 751.28125 621.648438 C 751.851562 621.207031 752.4375 620.765625 753.039062 620.328125 C 753.175781 628.890625 752.726562 637.46875 753.085938 646.027344 C 752.824219 648.757812 756.4375 649.722656 756.367188 652.363281 C 756.417969 659.152344 756.484375 665.957031 756.066406 672.734375 C 755.835938 674.574219 758.285156 675.199219 758.226562 676.949219 C 758.296875 679.976562 758.039062 682.992188 758.066406 686.023438 C 758.996094 685.917969 759.941406 685.808594 760.890625 685.714844 C 760.945312 683.726562 760.757812 681.714844 761.09375 679.75 C 761.886719 678.050781 763.941406 677.789062 765.480469 677.066406 C 767.875 676.304688 769.34375 673.925781 776.390625 675.242188 C 781.730469 677.148438 776.953125 673.550781 778.636719 778.628906 C 784.289062 778.597656 789.953125 778.515625 795.605469 778.789062 C 795.792969 785.875 795.449219 792.964844 795.65625 800.054688 C 796.207031 800.140625 796.765625 800.230469 797.335938 800.320312 C 797.21875 796.703125 797.238281 793.082031 797.238281 789.464844 C 797.636719 789.476562 798.421875 789.492188 798.808594 789.496094 C 798.832031 793.359375 798.699219 797.21875 798.847656 801.074219 C 806.992188 801.492188 802.648438 801.128906 808.839844 799.664062 C 809.570312 787.976562 807.59375 740.527344 810.125 739.332031 C 812.445312 738.996094 814.816406 739.140625 817.164062 738.988281 C 817.308594 738.382812 817.460938 737.765625 817.632812 737.15625 C 819.414062 737.011719 820.984375 736.199219 822.164062 734.855469 C 822.835938 735.558594 823.511719 736.265625 824.207031 736.964844 C 834.292969 736.261719 834.226562 737.769531 838.65625 735.972656 C 839.882812 736.445312 841.136719 736.859375 842.414062 737.230469 C 842.75 737.867188 843.085938 738.515625 843.523438 739.113281 C 844.851562 739.503906 845.035156 737.839844 845.609375 737.027344 C 845.992188 737 846.394531 736.976562 846.8125 736.949219 C 846.976562 737.578125 847.152344 738.214844 847.339844 738.84375 C 848.3125 738.960938 849.289062 739.082031 850.285156 739.203125 C 850.515625 743.238281 850.421875 775.789062 850.34375 780.734375 C 851.046875 780.726562 851.765625 780.714844 852.496094 780.699219 C 852.804688 777.949219 851.601562 774.503906 853.921875 772.382812 C 855.507812 770.582031 858.28125 769.699219 858.832031 767.117188 C 859.058594 764.28125 859.328125 761.273438 858.246094 758.574219 C 858.804688 757.886719 859.425781 757.230469 859.878906 756.449219 C 860.191406 754.652344 859.761719 752.757812 860.34375 751.019531 C 861.628906 749.660156 863.53125 749.199219 865.09375 748.238281 C 866.121094 744.84375 864.457031 741.300781 865.371094 737.867188 C 865.9375 735.484375 864.171875 733.570312 863.40625 731.476562 C 863.929688 729.949219 864.621094 728.238281 866.015625 727.308594 C 869.546875 727.230469 868.554688 728.230469 868.574219 813.753906 L -224.582031 813.753906 L -224.582031 717.867188 C -223.773438 718.574219 -222.988281 719.378906 -221.953125 719.75 C -221.121094 719.402344 -220.359375 718.902344 -219.585938 718.457031 C -219.03125 719.226562 -218.5 720.019531 -217.898438 720.757812 C -216.195312 720.511719 -215.179688 718.84375 -213.890625 717.855469 C -211.988281 719.929688 -209.574219 721.339844 -207.117188 722.644531 C -206.449219 724.210938 -206.796875 726.035156 -206.578125 727.710938 C -205.785156 727.511719 -204.898438 727.347656 -204.5625 726.496094 C -202.734375 723.046875 -200.496094 719.578125 -200.523438 715.523438 C -200.308594 715.683594 -199.875 716.003906 -199.65625 716.164062 C -199.070312 720.03125 -197.34375 723.570312 -195.453125 726.957031 C -187.074219 742.203125 -190.191406 735.125 -189.425781 742.101562 C -188.742188 742.246094 -188.050781 742.386719 -187.367188 742.519531 C -187.035156 746.496094 -187.207031 769.222656 -187.261719 773.082031 C -186.347656 773.226562 -185.433594 773.363281 -184.519531 773.515625 C -184.140625 774.097656 -183.988281 774.890625 -183.363281 775.28125 C -181.394531 775.449219 -179.414062 775.367188 -177.441406 775.40625 C -177.402344 773.753906 -177.457031 772.097656 -177.308594 770.449219 C -177.136719 768.652344 -176.277344 766.984375 -176.253906 765.167969 C -176.0625 761.78125 -176.84375 758.191406 -175.28125 755.015625 C -174.835938 753.511719 -173.269531 752.960938 -172.007812 752.320312 C -172.789062 741.722656 -167.511719 736.832031 -165.824219 737.1875 C -162.855469 737.566406 -160.445312 739.777344 -158.945312 742.269531 C -157.828125 744.28125 -155.835938 745.542969 -154.460938 747.34375 C -154.003906 749.363281 -154.15625 751.46875 -153.925781 753.519531 C -151.609375 753.226562 -149.53125 751.820312 -147.148438 752.007812 C -141.53125 751.945312 -135.90625 752.136719 -130.304688 751.785156 C -129.960938 747.765625 -131.054688 743.304688 -128.878906 739.679688 C -128.09375 739.261719 -127.21875 739.070312 -126.378906 738.800781 C -126.054688 729.894531 -125.042969 737.375 -124.949219 725.023438 C -124.285156 724.492188 -123.617188 723.96875 -122.953125 723.445312 C -123.136719 720.277344 -121.101562 717.34375 -122.148438 714.191406 L -120.792969 714.191406 C -121.804688 717.34375 -119.824219 720.292969 -119.996094 723.457031 C -119.34375 723.984375 -118.6875 724.507812 -118.027344 725.039062 C -118.019531 727.644531 -118.433594 730.359375 -117.503906 732.871094 C -116.957031 734.421875 -116.933594 736.09375 -116.4375 737.652344 C -115.710938 739.132812 -114.785156 740.523438 -114.316406 742.121094 C -113.214844 745.128906 -114.066406 748.375 -113.585938 751.476562 C -112.128906 754.035156 -112.714844 753.015625 -100.617188 752.996094 C -100.597656 738.402344 -100.757812 723.804688 -100.546875 709.210938 C -99.542969 709.117188 -98.539062 709.023438 -97.535156 708.929688 C -97.421875 707.976562 -97.308594 707.03125 -97.199219 706.085938 C -95.550781 705.652344 -93.90625 705.230469 -92.230469 704.949219 C -92.019531 704.351562 -91.816406 703.75 -91.613281 703.160156 C -90.65625 702.527344 -89.230469 702.144531 -89.003906 700.859375 C -87.285156 694.988281 -85.652344 698.570312 -81.980469 698.375 C -78.523438 698.273438 -74.980469 698.96875 -71.632812 697.800781 C -69.371094 697.089844 -68.660156 699.980469 -68.425781 701.625 C -66.738281 701.738281 -65.039062 701.789062 -63.339844 701.808594 C -61.902344 703.597656 -62.1875 705.910156 -62.21875 708.046875 C -61.15625 708.046875 -60.089844 708.046875 -59.027344 708.042969 C -58.875 707.367188 -58.722656 706.699219 -58.574219 706.027344 C -55.78125 706.1875 -52.921875 705.761719 -50.160156 706.230469 C -48.667969 707.277344 -47.175781 708.425781 -45.238281 708.339844 C -45.550781 721.871094 -45.570312 776.585938 -45.351562 782.957031 C -44.414062 783.085938 -43.46875 783.207031 -42.523438 783.332031 C -42.230469 783.8125 -41.9375 784.292969 -41.636719 784.773438 C -39.179688 785.484375 -36.730469 786.601562 -34.101562 786.089844 C -34.140625 766.992188 -33.902344 747.898438 -34.128906 728.800781 C -32.367188 727.8125 -30.664062 726.714844 -29.042969 725.503906 C -27.308594 726.957031 -25.253906 727.917969 -23.304688 729.039062 C -22.894531 729.757812 -23.140625 758.097656 -23.144531 758.527344 C -20.21875 758.332031 -17.277344 758.433594 -14.339844 758.464844 C -14.292969 760.269531 -14.488281 762.113281 -14.136719 763.902344 C -13.542969 764.835938 -12.316406 765.488281 -12.375 766.730469 C -12.257812 768.945312 -12.363281 771.167969 -12.226562 773.386719 C -8.789062 773.53125 -5.355469 773.601562 -1.917969 773.558594 C -2.003906 763.203125 -1.859375 752.847656 -2.003906 742.492188 C 0.0625 742.457031 2.136719 742.445312 4.210938 742.449219 C 4.355469 739.597656 4.039062 736.746094 4.179688 733.890625 C 4.964844 733.734375 5.753906 733.574219 6.550781 733.414062 C 5.828125 684.703125 7.253906 712.46875 7.792969 689.238281 C 11.855469 687.617188 16.652344 687.441406 20.632812 689.375 C 21.152344 692.347656 20.71875 695.382812 20.90625 698.378906 C 20.980469 699.847656 21.847656 701.128906 21.964844 702.59375 C 22.15625 705.632812 21.90625 708.683594 22.027344 711.730469 C 22.09375 714.074219 23.242188 716.234375 23.277344 718.589844 C 23.476562 723.648438 23.21875 728.714844 23.347656 733.773438 C 24.15625 733.75 24.960938 733.722656 25.773438 733.683594 C 25.84375 731.304688 25.890625 728.921875 25.875 726.546875 C 27.226562 726.464844 28.578125 726.398438 29.929688 726.320312 C 30.019531 725.066406 29.976562 723.785156 30.277344 722.554688 C 32.894531 717.445312 31.980469 729.957031 32.097656 673.097656 C 33.695312 672.574219 35.226562 671.847656 36.855469 671.425781 C 38.019531 671.386719 39.140625 671.878906 40.316406 671.804688 C 43.457031 671.324219 46.601562 672.183594 49.757812 671.828125 C 49.875 672.933594 50.023438 674.035156 50.207031 675.128906 C 50.707031 674.414062 51.179688 673.671875 51.617188 672.90625 C 53.269531 672.867188 54.925781 672.882812 56.585938 672.859375 C 56.660156 667.1875 56.136719 661.515625 56.65625 655.851562 C 57.691406 655.429688 58.734375 655.019531 59.785156 654.621094 C 59.957031 653.648438 60.121094 652.679688 60.316406 651.714844 C 62.574219 651.246094 64.804688 650.640625 67.046875 650.109375 C 67.605469 639.234375 66.972656 628.324219 67.488281 617.445312 Z M 67.488281 617.441406 " fill-opacity="1" fill-rule="nonzero"/></g><g fill="#ffffff" fill-opacity="1"><g transform="translate(439.519153, 316.616911)"><g><path d="M 3.125 -12.1875 L 1.09375 -12.1875 L 1.09375 -18.234375 L 3.125 -18.234375 Z M 7.359375 -12.1875 L 5.328125 -12.1875 L 5.328125 -18.234375 L 7.359375 -18.234375 Z M 7.359375 -12.1875 "/></g></g></g><g fill="#ffffff" fill-opacity="1"><g transform="translate(447.997888, 316.616911)"><g><path d="M 6.875 0 L 1.890625 0 L 1.890625 -18.234375 L 6.90625 -18.234375 C 9.945312 -18.234375 12.265625 -17.4375 13.859375 -15.84375 C 15.460938 -14.25 16.265625 -11.984375 16.265625 -9.046875 C 16.265625 -6.171875 15.457031 -3.941406 13.84375 -2.359375 C 12.238281 -0.785156 9.914062 0 6.875 0 Z M 4.078125 -16.25 L 4.078125 -1.984375 L 6.859375 -1.984375 C 7.816406 -1.984375 8.726562 -2.082031 9.59375 -2.28125 C 10.457031 -2.476562 11.222656 -2.835938 11.890625 -3.359375 C 12.566406 -3.878906 13.097656 -4.597656 13.484375 -5.515625 C 13.878906 -6.441406 14.078125 -7.617188 14.078125 -9.046875 C 14.078125 -10.835938 13.769531 -12.253906 13.15625 -13.296875 C 12.539062 -14.335938 11.691406 -15.085938 10.609375 -15.546875 C 9.535156 -16.015625 8.289062 -16.25 6.875 -16.25 Z M 4.078125 -16.25 "/></g></g></g><g fill="#ffffff" fill-opacity="1"><g transform="translate(465.480787, 316.616911)"><g><path d="M 7.59375 0.234375 C 6.332031 0.234375 5.21875 -0.0546875 4.25 -0.640625 C 3.28125 -1.234375 2.519531 -2.050781 1.96875 -3.09375 C 1.414062 -4.132812 1.140625 -5.328125 1.140625 -6.671875 C 1.140625 -7.972656 1.414062 -9.132812 1.96875 -10.15625 C 2.519531 -11.175781 3.28125 -11.976562 4.25 -12.5625 C 5.21875 -13.15625 6.332031 -13.453125 7.59375 -13.453125 C 8.851562 -13.453125 9.972656 -13.15625 10.953125 -12.5625 C 11.929688 -11.976562 12.695312 -11.175781 13.25 -10.15625 C 13.8125 -9.132812 14.09375 -7.972656 14.09375 -6.671875 C 14.09375 -5.347656 13.816406 -4.160156 13.265625 -3.109375 C 12.722656 -2.066406 11.960938 -1.25 10.984375 -0.65625 C 10.003906 -0.0625 8.875 0.234375 7.59375 0.234375 Z M 7.59375 -1.546875 C 8.4375 -1.546875 9.191406 -1.769531 9.859375 -2.21875 C 10.535156 -2.664062 11.066406 -3.273438 11.453125 -4.046875 C 11.847656 -4.816406 12.046875 -5.691406 12.046875 -6.671875 C 12.046875 -7.609375 11.851562 -8.453125 11.46875 -9.203125 C 11.082031 -9.960938 10.554688 -10.5625 9.890625 -11 C 9.222656 -11.4375 8.457031 -11.65625 7.59375 -11.65625 C 6.75 -11.65625 5.992188 -11.441406 5.328125 -11.015625 C 4.660156 -10.585938 4.132812 -9.992188 3.75 -9.234375 C 3.363281 -8.472656 3.171875 -7.617188 3.171875 -6.671875 C 3.171875 -5.679688 3.363281 -4.796875 3.75 -4.015625 C 4.144531 -3.242188 4.675781 -2.640625 5.34375 -2.203125 C 6.019531 -1.765625 6.769531 -1.546875 7.59375 -1.546875 Z M 7.59375 -1.546875 "/></g></g></g><g fill="#ffffff" fill-opacity="1"><g transform="translate(480.742501, 316.616911)"><g/></g></g><g fill="#ffffff" fill-opacity="1"><g transform="translate(487.429955, 316.616911)"><g><path d="M 7.734375 0 L 5.90625 0 C 5.25 0 4.6875 -0.0859375 4.21875 -0.265625 C 3.75 -0.453125 3.390625 -0.785156 3.140625 -1.265625 C 2.890625 -1.753906 2.765625 -2.441406 2.765625 -3.328125 L 2.765625 -11.421875 L 0.640625 -11.421875 L 0.640625 -13.21875 L 2.765625 -13.21875 L 2.765625 -18.234375 L 4.796875 -18.234375 L 4.796875 -13.21875 L 7.765625 -13.21875 L 7.765625 -11.421875 L 4.796875 -11.421875 L 4.796875 -3.734375 C 4.796875 -3.347656 4.820312 -3.003906 4.875 -2.703125 C 4.9375 -2.410156 5.078125 -2.1875 5.296875 -2.03125 C 5.523438 -1.875 5.882812 -1.796875 6.375 -1.796875 L 7.734375 -1.796875 Z M 7.734375 0 "/></g></g></g><g fill="#ffffff" fill-opacity="1"><g transform="translate(496.051986, 316.616911)"><g><path d="M 3.75 0 L 1.71875 0 L 1.71875 -18.234375 L 3.75 -18.234375 L 3.75 -11.15625 C 4.414062 -12.019531 5.054688 -12.617188 5.671875 -12.953125 C 6.285156 -13.285156 6.953125 -13.453125 7.671875 -13.453125 C 8.703125 -13.453125 9.523438 -13.253906 10.140625 -12.859375 C 10.765625 -12.472656 11.238281 -11.976562 11.5625 -11.375 C 11.882812 -10.78125 12.066406 -10.164062 12.109375 -9.53125 C 12.160156 -8.894531 12.1875 -8.367188 12.1875 -7.953125 L 12.1875 0 L 10.15625 0 L 10.15625 -7.953125 C 10.15625 -9.359375 9.898438 -10.347656 9.390625 -10.921875 C 8.941406 -11.410156 8.265625 -11.65625 7.359375 -11.65625 C 6.816406 -11.65625 6.34375 -11.566406 5.9375 -11.390625 C 5.539062 -11.222656 5.210938 -10.984375 4.953125 -10.671875 C 4.515625 -10.234375 4.203125 -9.625 4.015625 -8.84375 C 3.835938 -8.0625 3.75 -6.992188 3.75 -5.640625 Z M 3.75 0 "/></g></g></g><g fill="#ffffff" fill-opacity="1"><g transform="translate(509.832911, 316.616911)"><g><path d="M 2.71875 -15.484375 C 2.289062 -15.484375 1.925781 -15.628906 1.625 -15.921875 C 1.320312 -16.210938 1.171875 -16.566406 1.171875 -16.984375 C 1.171875 -17.398438 1.320312 -17.75 1.625 -18.03125 C 1.925781 -18.320312 2.289062 -18.46875 2.71875 -18.46875 C 3.15625 -18.46875 3.523438 -18.320312 3.828125 -18.03125 C 4.128906 -17.75 4.28125 -17.398438 4.28125 -16.984375 C 4.28125 -16.566406 4.128906 -16.210938 3.828125 -15.921875 C 3.523438 -15.628906 3.15625 -15.484375 2.71875 -15.484375 Z M 3.734375 0 L 1.703125 0 L 1.703125 -13.21875 L 3.734375 -13.21875 Z M 3.734375 0 "/></g></g></g><g fill="#ffffff" fill-opacity="1"><g transform="translate(515.254526, 316.616911)"><g><path d="M 3.734375 0 L 1.703125 0 L 1.703125 -13.21875 L 3.734375 -13.21875 L 3.734375 -11.15625 C 4.398438 -12.019531 5.035156 -12.617188 5.640625 -12.953125 C 6.253906 -13.285156 6.921875 -13.453125 7.640625 -13.453125 C 8.679688 -13.453125 9.507812 -13.253906 10.125 -12.859375 C 10.75 -12.472656 11.222656 -11.976562 11.546875 -11.375 C 11.859375 -10.78125 12.035156 -10.164062 12.078125 -9.53125 C 12.128906 -8.894531 12.15625 -8.367188 12.15625 -7.953125 L 12.15625 0 L 10.125 0 L 10.125 -7.953125 C 10.125 -9.359375 9.867188 -10.347656 9.359375 -10.921875 C 8.921875 -11.410156 8.242188 -11.65625 7.328125 -11.65625 C 6.785156 -11.65625 6.316406 -11.566406 5.921875 -11.390625 C 5.523438 -11.222656 5.191406 -10.984375 4.921875 -10.671875 C 4.492188 -10.234375 4.1875 -9.625 4 -8.84375 C 3.820312 -8.0625 3.734375 -6.992188 3.734375 -5.640625 Z M 3.734375 0 "/></g></g></g><g fill="#ffffff" fill-opacity="1"><g transform="translate(529.011566, 316.616911)"><g><path d="M 7.53125 5.25 C 6.632812 5.25 5.765625 5.117188 4.921875 4.859375 C 4.085938 4.609375 3.375 4.179688 2.78125 3.578125 C 2.1875 2.972656 1.800781 2.140625 1.625 1.078125 L 3.703125 1.078125 C 3.910156 1.859375 4.320312 2.453125 4.9375 2.859375 C 5.5625 3.265625 6.414062 3.46875 7.5 3.46875 C 8.882812 3.46875 9.882812 3.148438 10.5 2.515625 C 11.125 1.890625 11.4375 1.023438 11.4375 -0.078125 L 11.4375 -2.046875 C 10.757812 -1.171875 10.09375 -0.570312 9.4375 -0.25 C 8.78125 0.0703125 8.007812 0.234375 7.125 0.234375 C 5.9375 0.234375 4.898438 -0.0507812 4.015625 -0.625 C 3.140625 -1.195312 2.457031 -1.992188 1.96875 -3.015625 C 1.488281 -4.046875 1.25 -5.222656 1.25 -6.546875 C 1.25 -7.910156 1.488281 -9.109375 1.96875 -10.140625 C 2.457031 -11.179688 3.140625 -11.992188 4.015625 -12.578125 C 4.890625 -13.160156 5.914062 -13.453125 7.09375 -13.453125 C 8.019531 -13.453125 8.804688 -13.285156 9.453125 -12.953125 C 10.109375 -12.617188 10.769531 -12.019531 11.4375 -11.15625 L 11.4375 -13.21875 L 13.46875 -13.21875 L 13.46875 -0.453125 C 13.46875 0.984375 13.210938 2.113281 12.703125 2.9375 C 12.203125 3.769531 11.503906 4.363281 10.609375 4.71875 C 9.710938 5.070312 8.6875 5.25 7.53125 5.25 Z M 7.3125 -1.546875 C 8.132812 -1.546875 8.859375 -1.765625 9.484375 -2.203125 C 10.117188 -2.640625 10.613281 -3.238281 10.96875 -4 C 11.332031 -4.769531 11.515625 -5.644531 11.515625 -6.625 C 11.515625 -7.59375 11.332031 -8.453125 10.96875 -9.203125 C 10.601562 -9.960938 10.101562 -10.5625 9.46875 -11 C 8.84375 -11.4375 8.125 -11.65625 7.3125 -11.65625 C 6.476562 -11.65625 5.757812 -11.429688 5.15625 -10.984375 C 4.550781 -10.546875 4.082031 -9.945312 3.75 -9.1875 C 3.425781 -8.425781 3.265625 -7.570312 3.265625 -6.625 C 3.265625 -5.664062 3.425781 -4.800781 3.75 -4.03125 C 4.082031 -3.269531 4.550781 -2.664062 5.15625 -2.21875 C 5.757812 -1.769531 6.476562 -1.546875 7.3125 -1.546875 Z M 7.3125 -1.546875 "/></g></g></g><g fill="#ffffff" fill-opacity="1"><g transform="translate(544.17774, 316.616911)"><g><path d="M 7.03125 0.234375 C 5.332031 0.234375 3.960938 -0.164062 2.921875 -0.96875 C 1.878906 -1.769531 1.25 -2.863281 1.03125 -4.25 L 3.15625 -4.25 C 3.332031 -3.457031 3.726562 -2.804688 4.34375 -2.296875 C 4.96875 -1.796875 5.867188 -1.546875 7.046875 -1.546875 C 7.941406 -1.546875 8.671875 -1.71875 9.234375 -2.0625 C 9.796875 -2.40625 10.078125 -2.910156 10.078125 -3.578125 C 10.078125 -4.140625 9.898438 -4.570312 9.546875 -4.875 C 9.203125 -5.175781 8.742188 -5.40625 8.171875 -5.5625 C 7.609375 -5.726562 7.003906 -5.875 6.359375 -6 C 5.785156 -6.101562 5.210938 -6.226562 4.640625 -6.375 C 4.078125 -6.519531 3.5625 -6.71875 3.09375 -6.96875 C 2.632812 -7.226562 2.265625 -7.570312 1.984375 -8 C 1.710938 -8.4375 1.578125 -8.988281 1.578125 -9.65625 C 1.578125 -10.476562 1.785156 -11.171875 2.203125 -11.734375 C 2.628906 -12.304688 3.207031 -12.734375 3.9375 -13.015625 C 4.675781 -13.304688 5.488281 -13.453125 6.375 -13.453125 C 7.8125 -13.453125 9.003906 -13.082031 9.953125 -12.34375 C 10.910156 -11.601562 11.503906 -10.570312 11.734375 -9.25 L 9.84375 -9.25 C 9.632812 -10.09375 9.222656 -10.703125 8.609375 -11.078125 C 7.992188 -11.460938 7.25 -11.65625 6.375 -11.65625 C 5.5 -11.65625 4.816406 -11.488281 4.328125 -11.15625 C 3.847656 -10.832031 3.609375 -10.382812 3.609375 -9.8125 C 3.609375 -9.351562 3.769531 -8.992188 4.09375 -8.734375 C 4.425781 -8.472656 4.851562 -8.273438 5.375 -8.140625 C 5.894531 -8.003906 6.460938 -7.867188 7.078125 -7.734375 C 7.660156 -7.628906 8.25 -7.5 8.84375 -7.34375 C 9.445312 -7.195312 9.992188 -6.988281 10.484375 -6.71875 C 10.984375 -6.445312 11.378906 -6.078125 11.671875 -5.609375 C 11.960938 -5.148438 12.109375 -4.546875 12.109375 -3.796875 C 12.109375 -2.585938 11.664062 -1.613281 10.78125 -0.875 C 9.894531 -0.132812 8.644531 0.234375 7.03125 0.234375 Z M 7.03125 0.234375 "/></g></g></g><g fill="#ffffff" fill-opacity="1"><g transform="translate(557.480991, 316.616911)"><g/></g></g><g fill="#ffffff" fill-opacity="1"><g transform="translate(564.168445, 316.616911)"><g><path d="M 5.453125 0.234375 C 4.128906 0.234375 3.078125 -0.0976562 2.296875 -0.765625 C 1.523438 -1.429688 1.140625 -2.347656 1.140625 -3.515625 C 1.140625 -4.660156 1.570312 -5.566406 2.4375 -6.234375 C 3.132812 -6.796875 4.144531 -7.210938 5.46875 -7.484375 L 10.171875 -8.390625 C 10.171875 -9.421875 9.898438 -10.207031 9.359375 -10.75 C 8.753906 -11.351562 7.941406 -11.65625 6.921875 -11.65625 C 6.109375 -11.65625 5.40625 -11.441406 4.8125 -11.015625 C 4.21875 -10.585938 3.835938 -10 3.671875 -9.25 L 1.65625 -9.25 C 1.8125 -10.164062 2.144531 -10.9375 2.65625 -11.5625 C 3.175781 -12.1875 3.8125 -12.65625 4.5625 -12.96875 C 5.3125 -13.289062 6.109375 -13.453125 6.953125 -13.453125 C 7.710938 -13.453125 8.429688 -13.335938 9.109375 -13.109375 C 9.785156 -12.890625 10.359375 -12.550781 10.828125 -12.09375 C 11.285156 -11.644531 11.609375 -11.140625 11.796875 -10.578125 C 11.992188 -10.023438 12.109375 -9.5 12.140625 -9 C 12.179688 -8.5 12.203125 -8.09375 12.203125 -7.78125 L 12.203125 0 L 10.171875 0 L 10.171875 -2.078125 C 9.710938 -1.410156 9.179688 -0.894531 8.578125 -0.53125 C 8.128906 -0.257812 7.644531 -0.0664062 7.125 0.046875 C 6.613281 0.171875 6.054688 0.234375 5.453125 0.234375 Z M 5.6875 -1.546875 C 6.5 -1.546875 7.195312 -1.695312 7.78125 -2 C 8.726562 -2.5 9.367188 -3.140625 9.703125 -3.921875 C 10.035156 -4.703125 10.203125 -5.640625 10.203125 -6.734375 L 5.90625 -5.875 C 4.914062 -5.6875 4.191406 -5.378906 3.734375 -4.953125 C 3.359375 -4.578125 3.171875 -4.113281 3.171875 -3.5625 C 3.171875 -2.957031 3.398438 -2.46875 3.859375 -2.09375 C 4.316406 -1.726562 4.925781 -1.546875 5.6875 -1.546875 Z M 5.6875 -1.546875 "/></g></g></g><g fill="#ffffff" fill-opacity="1"><g transform="translate(577.925484, 316.616911)"><g><path d="M 7.734375 0 L 5.90625 0 C 5.25 0 4.6875 -0.0859375 4.21875 -0.265625 C 3.75 -0.453125 3.390625 -0.785156 3.140625 -1.265625 C 2.890625 -1.753906 2.765625 -2.441406 2.765625 -3.328125 L 2.765625 -11.421875 L 0.640625 -11.421875 L 0.640625 -13.21875 L 2.765625 -13.21875 L 2.765625 -18.234375 L 4.796875 -18.234375 L 4.796875 -13.21875 L 7.765625 -13.21875 L 7.765625 -11.421875 L 4.796875 -11.421875 L 4.796875 -3.734375 C 4.796875 -3.347656 4.820312 -3.003906 4.875 -2.703125 C 4.9375 -2.410156 5.078125 -2.1875 5.296875 -2.03125 C 5.523438 -1.875 5.882812 -1.796875 6.375 -1.796875 L 7.734375 -1.796875 Z M 7.734375 0 "/></g></g></g><g fill="#ffffff" fill-opacity="1"><g transform="translate(586.547515, 316.616911)"><g/></g></g><g fill="#ffffff" fill-opacity="1"><g transform="translate(593.234969, 316.616911)"><g><path d="M 3.65625 5.015625 L 1.703125 5.015625 L 1.703125 3.15625 L 2.9375 3.15625 C 3.300781 3.15625 3.59375 3.125 3.8125 3.0625 C 4.039062 3.007812 4.234375 2.882812 4.390625 2.6875 C 4.554688 2.5 4.71875 2.191406 4.875 1.765625 L 5.59375 -0.1875 L 0.4375 -13.21875 L 2.671875 -13.21875 L 6.6875 -2.96875 L 10.421875 -13.21875 L 12.609375 -13.21875 L 6.765625 2.65625 C 6.410156 3.625 6 4.257812 5.53125 4.5625 C 5.070312 4.863281 4.445312 5.015625 3.65625 5.015625 Z M 3.65625 5.015625 "/></g></g></g><g fill="#ffffff" fill-opacity="1"><g transform="translate(606.347154, 316.616911)"><g><path d="M 7.59375 0.234375 C 6.332031 0.234375 5.21875 -0.0546875 4.25 -0.640625 C 3.28125 -1.234375 2.519531 -2.050781 1.96875 -3.09375 C 1.414062 -4.132812 1.140625 -5.328125 1.140625 -6.671875 C 1.140625 -7.972656 1.414062 -9.132812 1.96875 -10.15625 C 2.519531 -11.175781 3.28125 -11.976562 4.25 -12.5625 C 5.21875 -13.15625 6.332031 -13.453125 7.59375 -13.453125 C 8.851562 -13.453125 9.972656 -13.15625 10.953125 -12.5625 C 11.929688 -11.976562 12.695312 -11.175781 13.25 -10.15625 C 13.8125 -9.132812 14.09375 -7.972656 14.09375 -6.671875 C 14.09375 -5.347656 13.816406 -4.160156 13.265625 -3.109375 C 12.722656 -2.066406 11.960938 -1.25 10.984375 -0.65625 C 10.003906 -0.0625 8.875 0.234375 7.59375 0.234375 Z M 7.59375 -1.546875 C 8.4375 -1.546875 9.191406 -1.769531 9.859375 -2.21875 C 10.535156 -2.664062 11.066406 -3.273438 11.453125 -4.046875 C 11.847656 -4.816406 12.046875 -5.691406 12.046875 -6.671875 C 12.046875 -7.609375 11.851562 -8.453125 11.46875 -9.203125 C 11.082031 -9.960938 10.554688 -10.5625 9.890625 -11 C 9.222656 -11.4375 8.457031 -11.65625 7.59375 -11.65625 C 6.75 -11.65625 5.992188 -11.441406 5.328125 -11.015625 C 4.660156 -10.585938 4.132812 -9.992188 3.75 -9.234375 C 3.363281 -8.472656 3.171875 -7.617188 3.171875 -6.671875 C 3.171875 -5.679688 3.363281 -4.796875 3.75 -4.015625 C 4.144531 -3.242188 4.675781 -2.640625 5.34375 -2.203125 C 6.019531 -1.765625 6.769531 -1.546875 7.59375 -1.546875 Z M 7.59375 -1.546875 "/></g></g></g><g fill="#ffffff" fill-opacity="1"><g transform="translate(621.608868, 316.616911)"><g><path d="M 6.15625 0.234375 C 4.3125 0.234375 3.015625 -0.457031 2.265625 -1.84375 C 1.859375 -2.625 1.65625 -3.757812 1.65625 -5.25 L 1.65625 -13.21875 L 3.671875 -13.21875 L 3.671875 -5.25 C 3.671875 -3.851562 3.925781 -2.867188 4.4375 -2.296875 C 4.882812 -1.796875 5.5625 -1.546875 6.46875 -1.546875 C 7.476562 -1.546875 8.285156 -1.875 8.890625 -2.53125 C 9.316406 -2.988281 9.617188 -3.601562 9.796875 -4.375 C 9.984375 -5.15625 10.078125 -6.222656 10.078125 -7.578125 L 10.078125 -13.21875 L 12.109375 -13.21875 L 12.109375 0 L 10.078125 0 L 10.078125 -2.046875 C 9.441406 -1.242188 8.816406 -0.660156 8.203125 -0.296875 C 7.585938 0.0546875 6.90625 0.234375 6.15625 0.234375 Z M 6.15625 0.234375 "/></g></g></g><g fill="#ffffff" fill-opacity="1"><g transform="translate(635.413678, 316.616911)"><g><path d="M 3.734375 0 L 1.703125 0 L 1.703125 -13.21875 L 3.734375 -13.21875 L 3.734375 -11.390625 C 4.335938 -12.140625 4.984375 -12.671875 5.671875 -12.984375 C 6.367188 -13.296875 7.160156 -13.453125 8.046875 -13.453125 L 8.140625 -13.453125 L 8.140625 -11.421875 L 7.453125 -11.421875 C 6.390625 -11.421875 5.535156 -11.101562 4.890625 -10.46875 C 4.515625 -10.101562 4.226562 -9.628906 4.03125 -9.046875 C 3.832031 -8.472656 3.734375 -7.773438 3.734375 -6.953125 Z M 3.734375 0 "/></g></g></g><g fill="#ffffff" fill-opacity="1"><g transform="translate(644.08348, 316.616911)"><g/></g></g><g fill="#ffffff" fill-opacity="1"><g transform="translate(650.770933, 316.616911)"><g><path d="M 7.59375 0.234375 C 6.332031 0.234375 5.21875 -0.0546875 4.25 -0.640625 C 3.28125 -1.234375 2.519531 -2.050781 1.96875 -3.09375 C 1.414062 -4.132812 1.140625 -5.328125 1.140625 -6.671875 C 1.140625 -7.972656 1.414062 -9.132812 1.96875 -10.15625 C 2.519531 -11.175781 3.28125 -11.976562 4.25 -12.5625 C 5.21875 -13.15625 6.332031 -13.453125 7.59375 -13.453125 C 8.851562 -13.453125 9.972656 -13.15625 10.953125 -12.5625 C 11.929688 -11.976562 12.695312 -11.175781 13.25 -10.15625 C 13.8125 -9.132812 14.09375 -7.972656 14.09375 -6.671875 C 14.09375 -5.347656 13.816406 -4.160156 13.265625 -3.109375 C 12.722656 -2.066406 11.960938 -1.25 10.984375 -0.65625 C 10.003906 -0.0625 8.875 0.234375 7.59375 0.234375 Z M 7.59375 -1.546875 C 8.4375 -1.546875 9.191406 -1.769531 9.859375 -2.21875 C 10.535156 -2.664062 11.066406 -3.273438 11.453125 -4.046875 C 11.847656 -4.816406 12.046875 -5.691406 12.046875 -6.671875 C 12.046875 -7.609375 11.851562 -8.453125 11.46875 -9.203125 C 11.082031 -9.960938 10.554688 -10.5625 9.890625 -11 C 9.222656 -11.4375 8.457031 -11.65625 7.59375 -11.65625 C 6.75 -11.65625 5.992188 -11.441406 5.328125 -11.015625 C 4.660156 -10.585938 4.132812 -9.992188 3.75 -9.234375 C 3.363281 -8.472656 3.171875 -7.617188 3.171875 -6.671875 C 3.171875 -5.679688 3.363281 -4.796875 3.75 -4.015625 C 4.144531 -3.242188 4.675781 -2.640625 5.34375 -2.203125 C 6.019531 -1.765625 6.769531 -1.546875 7.59375 -1.546875 Z M 7.59375 -1.546875 "/></g></g></g><g fill="#ffffff" fill-opacity="1"><g transform="translate(666.032648, 316.616911)"><g><path d="M 6.359375 0 L 4.46875 0 L 0.59375 -13.21875 L 2.765625 -13.21875 L 5.546875 -3.296875 L 8.859375 -13.21875 L 10.703125 -13.21875 L 14.03125 -3.296875 L 16.8125 -13.21875 L 19 -13.21875 L 15.078125 0 L 13.1875 0 L 9.796875 -10.34375 Z M 6.359375 0 "/></g></g></g><g fill="#ffffff" fill-opacity="1"><g transform="translate(685.617335, 316.616911)"><g><path d="M 3.734375 0 L 1.703125 0 L 1.703125 -13.21875 L 3.734375 -13.21875 L 3.734375 -11.15625 C 4.398438 -12.019531 5.035156 -12.617188 5.640625 -12.953125 C 6.253906 -13.285156 6.921875 -13.453125 7.640625 -13.453125 C 8.679688 -13.453125 9.507812 -13.253906 10.125 -12.859375 C 10.75 -12.472656 11.222656 -11.976562 11.546875 -11.375 C 11.859375 -10.78125 12.035156 -10.164062 12.078125 -9.53125 C 12.128906 -8.894531 12.15625 -8.367188 12.15625 -7.953125 L 12.15625 0 L 10.125 0 L 10.125 -7.953125 C 10.125 -9.359375 9.867188 -10.347656 9.359375 -10.921875 C 8.921875 -11.410156 8.242188 -11.65625 7.328125 -11.65625 C 6.785156 -11.65625 6.316406 -11.566406 5.921875 -11.390625 C 5.523438 -11.222656 5.191406 -10.984375 4.921875 -10.671875 C 4.492188 -10.234375 4.1875 -9.625 4 -8.84375 C 3.820312 -8.0625 3.734375 -6.992188 3.734375 -5.640625 Z M 3.734375 0 "/></g></g></g><g fill="#ffffff" fill-opacity="1"><g transform="translate(699.374374, 316.616911)"><g/></g></g><g fill="#ffffff" fill-opacity="1"><g transform="translate(706.061828, 316.616911)"><g><path d="M 8.078125 -13.453125 C 9.265625 -13.453125 10.296875 -13.160156 11.171875 -12.578125 C 12.054688 -11.992188 12.738281 -11.191406 13.21875 -10.171875 C 13.707031 -9.160156 13.953125 -7.976562 13.953125 -6.625 C 13.953125 -5.269531 13.707031 -4.078125 13.21875 -3.046875 C 12.738281 -2.015625 12.054688 -1.207031 11.171875 -0.625 C 10.296875 -0.0507812 9.265625 0.234375 8.078125 0.234375 C 7.203125 0.234375 6.429688 0.0703125 5.765625 -0.25 C 5.109375 -0.570312 4.4375 -1.171875 3.75 -2.046875 L 3.75 5.015625 L 1.71875 5.015625 L 1.71875 -13.21875 L 3.75 -13.21875 L 3.75 -11.15625 C 4.414062 -12.019531 5.078125 -12.617188 5.734375 -12.953125 C 6.390625 -13.285156 7.171875 -13.453125 8.078125 -13.453125 Z M 7.890625 -11.65625 C 7.078125 -11.65625 6.347656 -11.4375 5.703125 -11 C 5.066406 -10.5625 4.566406 -9.960938 4.203125 -9.203125 C 3.847656 -8.453125 3.671875 -7.59375 3.671875 -6.625 C 3.671875 -5.644531 3.847656 -4.769531 4.203125 -4 C 4.566406 -3.238281 5.066406 -2.640625 5.703125 -2.203125 C 6.347656 -1.765625 7.078125 -1.546875 7.890625 -1.546875 C 8.710938 -1.546875 9.425781 -1.769531 10.03125 -2.21875 C 10.632812 -2.664062 11.097656 -3.269531 11.421875 -4.03125 C 11.753906 -4.800781 11.921875 -5.664062 11.921875 -6.625 C 11.921875 -7.570312 11.753906 -8.425781 11.421875 -9.1875 C 11.097656 -9.945312 10.632812 -10.546875 10.03125 -10.984375 C 9.425781 -11.429688 8.710938 -11.65625 7.890625 -11.65625 Z M 7.890625 -11.65625 "/></g></g></g><g fill="#ffffff" fill-opacity="1"><g transform="translate(721.204117, 316.616911)"><g><path d="M 5.453125 0.234375 C 4.128906 0.234375 3.078125 -0.0976562 2.296875 -0.765625 C 1.523438 -1.429688 1.140625 -2.347656 1.140625 -3.515625 C 1.140625 -4.660156 1.570312 -5.566406 2.4375 -6.234375 C 3.132812 -6.796875 4.144531 -7.210938 5.46875 -7.484375 L 10.171875 -8.390625 C 10.171875 -9.421875 9.898438 -10.207031 9.359375 -10.75 C 8.753906 -11.351562 7.941406 -11.65625 6.921875 -11.65625 C 6.109375 -11.65625 5.40625 -11.441406 4.8125 -11.015625 C 4.21875 -10.585938 3.835938 -10 3.671875 -9.25 L 1.65625 -9.25 C 1.8125 -10.164062 2.144531 -10.9375 2.65625 -11.5625 C 3.175781 -12.1875 3.8125 -12.65625 4.5625 -12.96875 C 5.3125 -13.289062 6.109375 -13.453125 6.953125 -13.453125 C 7.710938 -13.453125 8.429688 -13.335938 9.109375 -13.109375 C 9.785156 -12.890625 10.359375 -12.550781 10.828125 -12.09375 C 11.285156 -11.644531 11.609375 -11.140625 11.796875 -10.578125 C 11.992188 -10.023438 12.109375 -9.5 12.140625 -9 C 12.179688 -8.5 12.203125 -8.09375 12.203125 -7.78125 L 12.203125 0 L 10.171875 0 L 10.171875 -2.078125 C 9.710938 -1.410156 9.179688 -0.894531 8.578125 -0.53125 C 8.128906 -0.257812 7.644531 -0.0664062 7.125 0.046875 C 6.613281 0.171875 6.054688 0.234375 5.453125 0.234375 Z M 5.6875 -1.546875 C 6.5 -1.546875 7.195312 -1.695312 7.78125 -2 C 8.726562 -2.5 9.367188 -3.140625 9.703125 -3.921875 C 10.035156 -4.703125 10.203125 -5.640625 10.203125 -6.734375 L 5.90625 -5.875 C 4.914062 -5.6875 4.191406 -5.378906 3.734375 -4.953125 C 3.359375 -4.578125 3.171875 -4.113281 3.171875 -3.5625 C 3.171875 -2.957031 3.398438 -2.46875 3.859375 -2.09375 C 4.316406 -1.726562 4.925781 -1.546875 5.6875 -1.546875 Z M 5.6875 -1.546875 "/></g></g></g><g fill="#ffffff" fill-opacity="1"><g transform="translate(734.961156, 316.616911)"><g><path d="M 7.546875 0.234375 C 6.304688 0.234375 5.203125 -0.0546875 4.234375 -0.640625 C 3.273438 -1.234375 2.519531 -2.050781 1.96875 -3.09375 C 1.414062 -4.132812 1.140625 -5.328125 1.140625 -6.671875 C 1.140625 -7.972656 1.410156 -9.132812 1.953125 -10.15625 C 2.492188 -11.175781 3.242188 -11.976562 4.203125 -12.5625 C 5.171875 -13.15625 6.285156 -13.453125 7.546875 -13.453125 C 9.023438 -13.453125 10.28125 -13.066406 11.3125 -12.296875 C 12.34375 -11.535156 13.007812 -10.519531 13.3125 -9.25 L 11.140625 -9.25 C 10.878906 -10 10.425781 -10.585938 9.78125 -11.015625 C 9.132812 -11.441406 8.390625 -11.65625 7.546875 -11.65625 C 6.722656 -11.65625 5.976562 -11.441406 5.3125 -11.015625 C 4.65625 -10.585938 4.132812 -10 3.75 -9.25 C 3.363281 -8.5 3.171875 -7.640625 3.171875 -6.671875 C 3.171875 -5.660156 3.363281 -4.769531 3.75 -4 C 4.132812 -3.238281 4.65625 -2.640625 5.3125 -2.203125 C 5.976562 -1.765625 6.722656 -1.546875 7.546875 -1.546875 C 8.472656 -1.546875 9.265625 -1.789062 9.921875 -2.28125 C 10.585938 -2.78125 11.023438 -3.4375 11.234375 -4.25 L 13.40625 -4.25 C 13.113281 -2.851562 12.429688 -1.753906 11.359375 -0.953125 C 10.296875 -0.160156 9.023438 0.234375 7.546875 0.234375 Z M 7.546875 0.234375 "/></g></g></g><g fill="#ffffff" fill-opacity="1"><g transform="translate(749.33918, 316.616911)"><g><path d="M 7.578125 0.234375 C 6.316406 0.234375 5.195312 -0.0625 4.21875 -0.65625 C 3.25 -1.25 2.492188 -2.0625 1.953125 -3.09375 C 1.410156 -4.125 1.140625 -5.28125 1.140625 -6.5625 C 1.140625 -7.757812 1.382812 -8.882812 1.875 -9.9375 C 2.375 -10.988281 3.101562 -11.835938 4.0625 -12.484375 C 5.019531 -13.128906 6.175781 -13.453125 7.53125 -13.453125 C 8.644531 -13.453125 9.679688 -13.203125 10.640625 -12.703125 C 11.609375 -12.210938 12.394531 -11.476562 13 -10.5 C 13.601562 -9.53125 13.90625 -8.335938 13.90625 -6.921875 L 13.90625 -6.21875 L 3.15625 -6.21875 C 3.1875 -5.75 3.273438 -5.304688 3.421875 -4.890625 C 3.753906 -3.878906 4.285156 -3.066406 5.015625 -2.453125 C 5.742188 -1.847656 6.585938 -1.546875 7.546875 -1.546875 C 8.546875 -1.546875 9.378906 -1.8125 10.046875 -2.34375 C 10.722656 -2.882812 11.203125 -3.519531 11.484375 -4.25 L 13.671875 -4.25 C 13.398438 -3.425781 12.992188 -2.675781 12.453125 -2 C 11.910156 -1.320312 11.234375 -0.78125 10.421875 -0.375 C 9.617188 0.03125 8.671875 0.234375 7.578125 0.234375 Z M 3.34375 -8 L 11.734375 -8 C 11.710938 -8.226562 11.675781 -8.453125 11.625 -8.671875 C 11.582031 -8.890625 11.519531 -9.097656 11.4375 -9.296875 C 11.09375 -10.054688 10.570312 -10.640625 9.875 -11.046875 C 9.1875 -11.453125 8.421875 -11.65625 7.578125 -11.65625 C 6.703125 -11.65625 5.929688 -11.445312 5.265625 -11.03125 C 4.609375 -10.625 4.097656 -10.046875 3.734375 -9.296875 C 3.628906 -9.085938 3.546875 -8.867188 3.484375 -8.640625 C 3.421875 -8.421875 3.375 -8.207031 3.34375 -8 Z M 3.34375 -8 "/></g></g></g><g fill="#ffffff" fill-opacity="1"><g transform="translate(764.362072, 316.616911)"><g><path d="M 2.890625 0.234375 C 2.492188 0.234375 2.148438 0.0976562 1.859375 -0.171875 C 1.578125 -0.453125 1.4375 -0.789062 1.4375 -1.1875 C 1.4375 -1.570312 1.578125 -1.898438 1.859375 -2.171875 C 2.148438 -2.441406 2.492188 -2.578125 2.890625 -2.578125 C 3.253906 -2.578125 3.570312 -2.4375 3.84375 -2.15625 C 4.113281 -1.882812 4.25 -1.5625 4.25 -1.1875 C 4.25 -0.789062 4.113281 -0.453125 3.84375 -0.171875 C 3.570312 0.0976562 3.253906 0.234375 2.890625 0.234375 Z M 2.890625 0.234375 "/></g></g></g><g fill="#ffffff" fill-opacity="1"><g transform="translate(770.046409, 316.616911)"><g/></g></g><g fill="#ffffff" fill-opacity="1"><g transform="translate(776.733862, 316.616911)"><g><path d="M 12.25 0 L 1.890625 0 L 1.890625 -18.234375 L 4.078125 -18.234375 L 4.078125 -1.984375 L 12.25 -1.984375 Z M 12.25 0 "/></g></g></g><g fill="#ffffff" fill-opacity="1"><g transform="translate(789.344503, 316.616911)"><g><path d="M 2.71875 -15.484375 C 2.289062 -15.484375 1.925781 -15.628906 1.625 -15.921875 C 1.320312 -16.210938 1.171875 -16.566406 1.171875 -16.984375 C 1.171875 -17.398438 1.320312 -17.75 1.625 -18.03125 C 1.925781 -18.320312 2.289062 -18.46875 2.71875 -18.46875 C 3.15625 -18.46875 3.523438 -18.320312 3.828125 -18.03125 C 4.128906 -17.75 4.28125 -17.398438 4.28125 -16.984375 C 4.28125 -16.566406 4.128906 -16.210938 3.828125 -15.921875 C 3.523438 -15.628906 3.15625 -15.484375 2.71875 -15.484375 Z M 3.734375 0 L 1.703125 0 L 1.703125 -13.21875 L 3.734375 -13.21875 Z M 3.734375 0 "/></g></g></g><g fill="#ffffff" fill-opacity="1"><g transform="translate(794.766133, 316.616911)"><g><path d="M 4.84375 0 L 2.8125 0 L 2.8125 -11.421875 L 0.625 -11.421875 L 0.625 -13.21875 L 2.8125 -13.21875 L 2.8125 -14.640625 C 2.8125 -17.035156 3.953125 -18.234375 6.234375 -18.234375 L 7.9375 -18.234375 L 7.9375 -16.4375 L 6.6875 -16.4375 C 5.457031 -16.4375 4.84375 -15.75 4.84375 -14.375 L 4.84375 -13.21875 L 7.9375 -13.21875 L 7.9375 -11.421875 L 4.84375 -11.421875 Z M 4.84375 0 "/></g></g></g><g fill="#ffffff" fill-opacity="1"><g transform="translate(803.197112, 316.616911)"><g><path d="M 7.578125 0.234375 C 6.316406 0.234375 5.195312 -0.0625 4.21875 -0.65625 C 3.25 -1.25 2.492188 -2.0625 1.953125 -3.09375 C 1.410156 -4.125 1.140625 -5.28125 1.140625 -6.5625 C 1.140625 -7.757812 1.382812 -8.882812 1.875 -9.9375 C 2.375 -10.988281 3.101562 -11.835938 4.0625 -12.484375 C 5.019531 -13.128906 6.175781 -13.453125 7.53125 -13.453125 C 8.644531 -13.453125 9.679688 -13.203125 10.640625 -12.703125 C 11.609375 -12.210938 12.394531 -11.476562 13 -10.5 C 13.601562 -9.53125 13.90625 -8.335938 13.90625 -6.921875 L 13.90625 -6.21875 L 3.15625 -6.21875 C 3.1875 -5.75 3.273438 -5.304688 3.421875 -4.890625 C 3.753906 -3.878906 4.285156 -3.066406 5.015625 -2.453125 C 5.742188 -1.847656 6.585938 -1.546875 7.546875 -1.546875 C 8.546875 -1.546875 9.378906 -1.8125 10.046875 -2.34375 C 10.722656 -2.882812 11.203125 -3.519531 11.484375 -4.25 L 13.671875 -4.25 C 13.398438 -3.425781 12.992188 -2.675781 12.453125 -2 C 11.910156 -1.320312 11.234375 -0.78125 10.421875 -0.375 C 9.617188 0.03125 8.671875 0.234375 7.578125 0.234375 Z M 3.34375 -8 L 11.734375 -8 C 11.710938 -8.226562 11.675781 -8.453125 11.625 -8.671875 C 11.582031 -8.890625 11.519531 -9.097656 11.4375 -9.296875 C 11.09375 -10.054688 10.570312 -10.640625 9.875 -11.046875 C 9.1875 -11.453125 8.421875 -11.65625 7.578125 -11.65625 C 6.703125 -11.65625 5.929688 -11.445312 5.265625 -11.03125 C 4.609375 -10.625 4.097656 -10.046875 3.734375 -9.296875 C 3.628906 -9.085938 3.546875 -8.867188 3.484375 -8.640625 C 3.421875 -8.421875 3.375 -8.207031 3.34375 -8 Z M 3.34375 -8 "/></g></g></g><g fill="#ffffff" fill-opacity="1"><g transform="translate(818.219976, 316.616911)"><g><path d="M 3.125 -12.1875 L 1.09375 -12.1875 L 1.09375 -18.234375 L 3.125 -18.234375 Z M 3.125 -12.1875 "/></g></g></g><g fill="#ffffff" fill-opacity="1"><g transform="translate(822.447408, 316.616911)"><g><path d="M 7.03125 0.234375 C 5.332031 0.234375 3.960938 -0.164062 2.921875 -0.96875 C 1.878906 -1.769531 1.25 -2.863281 1.03125 -4.25 L 3.15625 -4.25 C 3.332031 -3.457031 3.726562 -2.804688 4.34375 -2.296875 C 4.96875 -1.796875 5.867188 -1.546875 7.046875 -1.546875 C 7.941406 -1.546875 8.671875 -1.71875 9.234375 -2.0625 C 9.796875 -2.40625 10.078125 -2.910156 10.078125 -3.578125 C 10.078125 -4.140625 9.898438 -4.570312 9.546875 -4.875 C 9.203125 -5.175781 8.742188 -5.40625 8.171875 -5.5625 C 7.609375 -5.726562 7.003906 -5.875 6.359375 -6 C 5.785156 -6.101562 5.210938 -6.226562 4.640625 -6.375 C 4.078125 -6.519531 3.5625 -6.71875 3.09375 -6.96875 C 2.632812 -7.226562 2.265625 -7.570312 1.984375 -8 C 1.710938 -8.4375 1.578125 -8.988281 1.578125 -9.65625 C 1.578125 -10.476562 1.785156 -11.171875 2.203125 -11.734375 C 2.628906 -12.304688 3.207031 -12.734375 3.9375 -13.015625 C 4.675781 -13.304688 5.488281 -13.453125 6.375 -13.453125 C 7.8125 -13.453125 9.003906 -13.082031 9.953125 -12.34375 C 10.910156 -11.601562 11.503906 -10.570312 11.734375 -9.25 L 9.84375 -9.25 C 9.632812 -10.09375 9.222656 -10.703125 8.609375 -11.078125 C 7.992188 -11.460938 7.25 -11.65625 6.375 -11.65625 C 5.5 -11.65625 4.816406 -11.488281 4.328125 -11.15625 C 3.847656 -10.832031 3.609375 -10.382812 3.609375 -9.8125 C 3.609375 -9.351562 3.769531 -8.992188 4.09375 -8.734375 C 4.425781 -8.472656 4.851562 -8.273438 5.375 -8.140625 C 5.894531 -8.003906 6.460938 -7.867188 7.078125 -7.734375 C 7.660156 -7.628906 8.25 -7.5 8.84375 -7.34375 C 9.445312 -7.195312 9.992188 -6.988281 10.484375 -6.71875 C 10.984375 -6.445312 11.378906 -6.078125 11.671875 -5.609375 C 11.960938 -5.148438 12.109375 -4.546875 12.109375 -3.796875 C 12.109375 -2.585938 11.664062 -1.613281 10.78125 -0.875 C 9.894531 -0.132812 8.644531 0.234375 7.03125 0.234375 Z M 7.03125 0.234375 "/></g></g></g><g fill="#ffffff" fill-opacity="1"><g transform="translate(835.750659, 316.616911)"><g/></g></g><g fill="#ffffff" fill-opacity="1"><g transform="translate(842.438113, 316.616911)"><g><path d="M 3.734375 0 L 1.703125 0 L 1.703125 -13.21875 L 3.734375 -13.21875 L 3.734375 -11.15625 C 4.398438 -12.019531 5.035156 -12.617188 5.640625 -12.953125 C 6.253906 -13.285156 6.921875 -13.453125 7.640625 -13.453125 C 8.679688 -13.453125 9.507812 -13.253906 10.125 -12.859375 C 10.75 -12.472656 11.222656 -11.976562 11.546875 -11.375 C 11.859375 -10.78125 12.035156 -10.164062 12.078125 -9.53125 C 12.128906 -8.894531 12.15625 -8.367188 12.15625 -7.953125 L 12.15625 0 L 10.125 0 L 10.125 -7.953125 C 10.125 -9.359375 9.867188 -10.347656 9.359375 -10.921875 C 8.921875 -11.410156 8.242188 -11.65625 7.328125 -11.65625 C 6.785156 -11.65625 6.316406 -11.566406 5.921875 -11.390625 C 5.523438 -11.222656 5.191406 -10.984375 4.921875 -10.671875 C 4.492188 -10.234375 4.1875 -9.625 4 -8.84375 C 3.820312 -8.0625 3.734375 -6.992188 3.734375 -5.640625 Z M 3.734375 0 "/></g></g></g><g fill="#ffffff" fill-opacity="1"><g transform="translate(856.195152, 316.616911)"><g><path d="M 7.59375 0.234375 C 6.332031 0.234375 5.21875 -0.0546875 4.25 -0.640625 C 3.28125 -1.234375 2.519531 -2.050781 1.96875 -3.09375 C 1.414062 -4.132812 1.140625 -5.328125 1.140625 -6.671875 C 1.140625 -7.972656 1.414062 -9.132812 1.96875 -10.15625 C 2.519531 -11.175781 3.28125 -11.976562 4.25 -12.5625 C 5.21875 -13.15625 6.332031 -13.453125 7.59375 -13.453125 C 8.851562 -13.453125 9.972656 -13.15625 10.953125 -12.5625 C 11.929688 -11.976562 12.695312 -11.175781 13.25 -10.15625 C 13.8125 -9.132812 14.09375 -7.972656 14.09375 -6.671875 C 14.09375 -5.347656 13.816406 -4.160156 13.265625 -3.109375 C 12.722656 -2.066406 11.960938 -1.25 10.984375 -0.65625 C 10.003906 -0.0625 8.875 0.234375 7.59375 0.234375 Z M 7.59375 -1.546875 C 8.4375 -1.546875 9.191406 -1.769531 9.859375 -2.21875 C 10.535156 -2.664062 11.066406 -3.273438 11.453125 -4.046875 C 11.847656 -4.816406 12.046875 -5.691406 12.046875 -6.671875 C 12.046875 -7.609375 11.851562 -8.453125 11.46875 -9.203125 C 11.082031 -9.960938 10.554688 -10.5625 9.890625 -11 C 9.222656 -11.4375 8.457031 -11.65625 7.59375 -11.65625 C 6.75 -11.65625 5.992188 -11.441406 5.328125 -11.015625 C 4.660156 -10.585938 4.132812 -9.992188 3.75 -9.234375 C 3.363281 -8.472656 3.171875 -7.617188 3.171875 -6.671875 C 3.171875 -5.679688 3.363281 -4.796875 3.75 -4.015625 C 4.144531 -3.242188 4.675781 -2.640625 5.34375 -2.203125 C 6.019531 -1.765625 6.769531 -1.546875 7.59375 -1.546875 Z M 7.59375 -1.546875 "/></g></g></g><g fill="#ffffff" fill-opacity="1"><g transform="translate(871.456867, 316.616911)"><g><path d="M 7.734375 0 L 5.90625 0 C 5.25 0 4.6875 -0.0859375 4.21875 -0.265625 C 3.75 -0.453125 3.390625 -0.785156 3.140625 -1.265625 C 2.890625 -1.753906 2.765625 -2.441406 2.765625 -3.328125 L 2.765625 -11.421875 L 0.640625 -11.421875 L 0.640625 -13.21875 L 2.765625 -13.21875 L 2.765625 -18.234375 L 4.796875 -18.234375 L 4.796875 -13.21875 L 7.765625 -13.21875 L 7.765625 -11.421875 L 4.796875 -11.421875 L 4.796875 -3.734375 C 4.796875 -3.347656 4.820312 -3.003906 4.875 -2.703125 C 4.9375 -2.410156 5.078125 -2.1875 5.296875 -2.03125 C 5.523438 -1.875 5.882812 -1.796875 6.375 -1.796875 L 7.734375 -1.796875 Z M 7.734375 0 "/></g></g></g><g fill="#ffffff" fill-opacity="1"><g transform="translate(880.078898, 316.616911)"><g/></g></g><g fill="#ffffff" fill-opacity="1"><g transform="translate(886.766351, 316.616911)"><g><path d="M 5.453125 0.234375 C 4.128906 0.234375 3.078125 -0.0976562 2.296875 -0.765625 C 1.523438 -1.429688 1.140625 -2.347656 1.140625 -3.515625 C 1.140625 -4.660156 1.570312 -5.566406 2.4375 -6.234375 C 3.132812 -6.796875 4.144531 -7.210938 5.46875 -7.484375 L 10.171875 -8.390625 C 10.171875 -9.421875 9.898438 -10.207031 9.359375 -10.75 C 8.753906 -11.351562 7.941406 -11.65625 6.921875 -11.65625 C 6.109375 -11.65625 5.40625 -11.441406 4.8125 -11.015625 C 4.21875 -10.585938 3.835938 -10 3.671875 -9.25 L 1.65625 -9.25 C 1.8125 -10.164062 2.144531 -10.9375 2.65625 -11.5625 C 3.175781 -12.1875 3.8125 -12.65625 4.5625 -12.96875 C 5.3125 -13.289062 6.109375 -13.453125 6.953125 -13.453125 C 7.710938 -13.453125 8.429688 -13.335938 9.109375 -13.109375 C 9.785156 -12.890625 10.359375 -12.550781 10.828125 -12.09375 C 11.285156 -11.644531 11.609375 -11.140625 11.796875 -10.578125 C 11.992188 -10.023438 12.109375 -9.5 12.140625 -9 C 12.179688 -8.5 12.203125 -8.09375 12.203125 -7.78125 L 12.203125 0 L 10.171875 0 L 10.171875 -2.078125 C 9.710938 -1.410156 9.179688 -0.894531 8.578125 -0.53125 C 8.128906 -0.257812 7.644531 -0.0664062 7.125 0.046875 C 6.613281 0.171875 6.054688 0.234375 5.453125 0.234375 Z M 5.6875 -1.546875 C 6.5 -1.546875 7.195312 -1.695312 7.78125 -2 C 8.726562 -2.5 9.367188 -3.140625 9.703125 -3.921875 C 10.035156 -4.703125 10.203125 -5.640625 10.203125 -6.734375 L 5.90625 -5.875 C 4.914062 -5.6875 4.191406 -5.378906 3.734375 -4.953125 C 3.359375 -4.578125 3.171875 -4.113281 3.171875 -3.5625 C 3.171875 -2.957031 3.398438 -2.46875 3.859375 -2.09375 C 4.316406 -1.726562 4.925781 -1.546875 5.6875 -1.546875 Z M 5.6875 -1.546875 "/></g></g></g><g fill="#ffffff" fill-opacity="1"><g transform="translate(900.523391, 316.616911)"><g/></g></g><g fill="#ffffff" fill-opacity="1"><g transform="translate(907.210845, 316.616911)"><g><path d="M 3.734375 0 L 1.703125 0 L 1.703125 -13.21875 L 3.734375 -13.21875 L 3.734375 -11.390625 C 4.335938 -12.140625 4.984375 -12.671875 5.671875 -12.984375 C 6.367188 -13.296875 7.160156 -13.453125 8.046875 -13.453125 L 8.140625 -13.453125 L 8.140625 -11.421875 L 7.453125 -11.421875 C 6.390625 -11.421875 5.535156 -11.101562 4.890625 -10.46875 C 4.515625 -10.101562 4.226562 -9.628906 4.03125 -9.046875 C 3.832031 -8.472656 3.734375 -7.773438 3.734375 -6.953125 Z M 3.734375 0 "/></g></g></g><g fill="#ffffff" fill-opacity="1"><g transform="translate(915.880646, 316.616911)"><g><path d="M 5.453125 0.234375 C 4.128906 0.234375 3.078125 -0.0976562 2.296875 -0.765625 C 1.523438 -1.429688 1.140625 -2.347656 1.140625 -3.515625 C 1.140625 -4.660156 1.570312 -5.566406 2.4375 -6.234375 C 3.132812 -6.796875 4.144531 -7.210938 5.46875 -7.484375 L 10.171875 -8.390625 C 10.171875 -9.421875 9.898438 -10.207031 9.359375 -10.75 C 8.753906 -11.351562 7.941406 -11.65625 6.921875 -11.65625 C 6.109375 -11.65625 5.40625 -11.441406 4.8125 -11.015625 C 4.21875 -10.585938 3.835938 -10 3.671875 -9.25 L 1.65625 -9.25 C 1.8125 -10.164062 2.144531 -10.9375 2.65625 -11.5625 C 3.175781 -12.1875 3.8125 -12.65625 4.5625 -12.96875 C 5.3125 -13.289062 6.109375 -13.453125 6.953125 -13.453125 C 7.710938 -13.453125 8.429688 -13.335938 9.109375 -13.109375 C 9.785156 -12.890625 10.359375 -12.550781 10.828125 -12.09375 C 11.285156 -11.644531 11.609375 -11.140625 11.796875 -10.578125 C 11.992188 -10.023438 12.109375 -9.5 12.140625 -9 C 12.179688 -8.5 12.203125 -8.09375 12.203125 -7.78125 L 12.203125 0 L 10.171875 0 L 10.171875 -2.078125 C 9.710938 -1.410156 9.179688 -0.894531 8.578125 -0.53125 C 8.128906 -0.257812 7.644531 -0.0664062 7.125 0.046875 C 6.613281 0.171875 6.054688 0.234375 5.453125 0.234375 Z M 5.6875 -1.546875 C 6.5 -1.546875 7.195312 -1.695312 7.78125 -2 C 8.726562 -2.5 9.367188 -3.140625 9.703125 -3.921875 C 10.035156 -4.703125 10.203125 -5.640625 10.203125 -6.734375 L 5.90625 -5.875 C 4.914062 -5.6875 4.191406 -5.378906 3.734375 -4.953125 C 3.359375 -4.578125 3.171875 -4.113281 3.171875 -3.5625 C 3.171875 -2.957031 3.398438 -2.46875 3.859375 -2.09375 C 4.316406 -1.726562 4.925781 -1.546875 5.6875 -1.546875 Z M 5.6875 -1.546875 "/></g></g></g><g fill="#ffffff" fill-opacity="1"><g transform="translate(929.637686, 316.616911)"><g><path d="M 7.546875 0.234375 C 6.304688 0.234375 5.203125 -0.0546875 4.234375 -0.640625 C 3.273438 -1.234375 2.519531 -2.050781 1.96875 -3.09375 C 1.414062 -4.132812 1.140625 -5.328125 1.140625 -6.671875 C 1.140625 -7.972656 1.410156 -9.132812 1.953125 -10.15625 C 2.492188 -11.175781 3.242188 -11.976562 4.203125 -12.5625 C 5.171875 -13.15625 6.285156 -13.453125 7.546875 -13.453125 C 9.023438 -13.453125 10.28125 -13.066406 11.3125 -12.296875 C 12.34375 -11.535156 13.007812 -10.519531 13.3125 -9.25 L 11.140625 -9.25 C 10.878906 -10 10.425781 -10.585938 9.78125 -11.015625 C 9.132812 -11.441406 8.390625 -11.65625 7.546875 -11.65625 C 6.722656 -11.65625 5.976562 -11.441406 5.3125 -11.015625 C 4.65625 -10.585938 4.132812 -10 3.75 -9.25 C 3.363281 -8.5 3.171875 -7.640625 3.171875 -6.671875 C 3.171875 -5.660156 3.363281 -4.769531 3.75 -4 C 4.132812 -3.238281 4.65625 -2.640625 5.3125 -2.203125 C 5.976562 -1.765625 6.722656 -1.546875 7.546875 -1.546875 C 8.472656 -1.546875 9.265625 -1.789062 9.921875 -2.28125 C 10.585938 -2.78125 11.023438 -3.4375 11.234375 -4.25 L 13.40625 -4.25 C 13.113281 -2.851562 12.429688 -1.753906 11.359375 -0.953125 C 10.296875 -0.160156 9.023438 0.234375 7.546875 0.234375 Z M 7.546875 0.234375 "/></g></g></g><g fill="#ffffff" fill-opacity="1"><g transform="translate(944.015709, 316.616911)"><g><path d="M 7.578125 0.234375 C 6.316406 0.234375 5.195312 -0.0625 4.21875 -0.65625 C 3.25 -1.25 2.492188 -2.0625 1.953125 -3.09375 C 1.410156 -4.125 1.140625 -5.28125 1.140625 -6.5625 C 1.140625 -7.757812 1.382812 -8.882812 1.875 -9.9375 C 2.375 -10.988281 3.101562 -11.835938 4.0625 -12.484375 C 5.019531 -13.128906 6.175781 -13.453125 7.53125 -13.453125 C 8.644531 -13.453125 9.679688 -13.203125 10.640625 -12.703125 C 11.609375 -12.210938 12.394531 -11.476562 13 -10.5 C 13.601562 -9.53125 13.90625 -8.335938 13.90625 -6.921875 L 13.90625 -6.21875 L 3.15625 -6.21875 C 3.1875 -5.75 3.273438 -5.304688 3.421875 -4.890625 C 3.753906 -3.878906 4.285156 -3.066406 5.015625 -2.453125 C 5.742188 -1.847656 6.585938 -1.546875 7.546875 -1.546875 C 8.546875 -1.546875 9.378906 -1.8125 10.046875 -2.34375 C 10.722656 -2.882812 11.203125 -3.519531 11.484375 -4.25 L 13.671875 -4.25 C 13.398438 -3.425781 12.992188 -2.675781 12.453125 -2 C 11.910156 -1.320312 11.234375 -0.78125 10.421875 -0.375 C 9.617188 0.03125 8.671875 0.234375 7.578125 0.234375 Z M 3.34375 -8 L 11.734375 -8 C 11.710938 -8.226562 11.675781 -8.453125 11.625 -8.671875 C 11.582031 -8.890625 11.519531 -9.097656 11.4375 -9.296875 C 11.09375 -10.054688 10.570312 -10.640625 9.875 -11.046875 C 9.1875 -11.453125 8.421875 -11.65625 7.578125 -11.65625 C 6.703125 -11.65625 5.929688 -11.445312 5.265625 -11.03125 C 4.609375 -10.625 4.097656 -10.046875 3.734375 -9.296875 C 3.628906 -9.085938 3.546875 -8.867188 3.484375 -8.640625 C 3.421875 -8.421875 3.375 -8.207031 3.34375 -8 Z M 3.34375 -8 "/></g></g></g><g fill="#ffffff" fill-opacity="1"><g transform="translate(959.038573, 316.616911)"><g><path d="M 2.890625 0.234375 C 2.492188 0.234375 2.148438 0.0976562 1.859375 -0.171875 C 1.578125 -0.453125 1.4375 -0.789062 1.4375 -1.1875 C 1.4375 -1.570312 1.578125 -1.898438 1.859375 -2.171875 C 2.148438 -2.441406 2.492188 -2.578125 2.890625 -2.578125 C 3.253906 -2.578125 3.570312 -2.4375 3.84375 -2.15625 C 4.113281 -1.882812 4.25 -1.5625 4.25 -1.1875 C 4.25 -0.789062 4.113281 -0.453125 3.84375 -0.171875 C 3.570312 0.0976562 3.253906 0.234375 2.890625 0.234375 Z M 2.890625 0.234375 "/></g></g></g><g fill="#ffffff" fill-opacity="1"><g transform="translate(964.722881, 316.616911)"><g><path d="M 3.125 -12.1875 L 1.09375 -12.1875 L 1.09375 -18.234375 L 3.125 -18.234375 Z M 7.359375 -12.1875 L 5.328125 -12.1875 L 5.328125 -18.234375 L 7.359375 -18.234375 Z M 7.359375 -12.1875 "/></g></g></g></svg>